<svg width="102" height="102" viewBox="0 0 102 102" fill="none" xmlns="http://www.w3.org/2000/svg">
<path d="M45.8575 13.1878C47.9612 8.9208 54.043 8.9208 56.1467 13.1878L66.1682 33.49L88.5742 36.7455C93.2832 37.4298 95.1617 43.214 91.7575 46.5333L75.5395 62.3433L79.3687 84.6558C80.1762 89.3435 75.2547 92.9178 71.043 90.7078L54.2215 81.8635C55.7057 76.601 55.5948 71.0163 53.9029 65.8168C52.2109 60.6172 49.014 56.0368 44.717 52.6554C40.42 49.2741 35.2162 47.244 29.7647 46.8222C24.3131 46.4004 18.8589 47.6059 14.093 50.286L10.2467 46.5333C6.84246 43.2183 8.72096 37.4298 13.4257 36.7455L35.836 33.49L45.8575 13.1878Z" fill="black"/>
<path d="M51 74.375C51 77.4446 50.3954 80.4842 49.2207 83.3202C48.046 86.1562 46.3242 88.7331 44.1536 90.9036C41.9831 93.0742 39.4062 94.796 36.5702 95.9707C33.7342 97.1454 30.6946 97.75 27.625 97.75C24.5554 97.75 21.5158 97.1454 18.6798 95.9707C15.8438 94.796 13.2669 93.0742 11.0964 90.9036C8.92581 88.7331 7.20402 86.1562 6.02932 83.3202C4.85461 80.4842 4.25 77.4446 4.25 74.375C4.25 68.1756 6.71272 62.23 11.0964 57.8464C15.48 53.4627 21.4256 51 27.625 51C33.8244 51 39.77 53.4627 44.1536 57.8464C48.5373 62.23 51 68.1756 51 74.375ZM14.875 72.25C14.3114 72.25 13.7709 72.4739 13.3724 72.8724C12.9739 73.2709 12.75 73.8114 12.75 74.375C12.75 74.9386 12.9739 75.4791 13.3724 75.8776C13.7709 76.2761 14.3114 76.5 14.875 76.5H35.2453L28.2455 83.4955C27.8465 83.8945 27.6223 84.4357 27.6223 85C27.6223 85.5643 27.8465 86.1055 28.2455 86.5045C28.6445 86.9035 29.1857 87.1277 29.75 87.1277C30.3143 87.1277 30.8555 86.9035 31.2545 86.5045L41.8795 75.8795C42.0774 75.6821 42.2344 75.4476 42.3415 75.1894C42.4487 74.9313 42.5038 74.6545 42.5038 74.375C42.5038 74.0955 42.4487 73.8187 42.3415 73.5606C42.2344 73.3024 42.0774 73.0679 41.8795 72.8705L31.2545 62.2455C30.8555 61.8465 30.3143 61.6223 29.75 61.6223C29.1857 61.6223 28.6445 61.8465 28.2455 62.2455C27.8465 62.6445 27.6223 63.1857 27.6223 63.75C27.6223 64.3143 27.8465 64.8555 28.2455 65.2545L35.2453 72.25H14.875Z" fill="black"/>
</svg>
