<svg width="98" height="69" viewBox="0 0 98 69" fill="none" xmlns="http://www.w3.org/2000/svg">
<path d="M34.3 34.5C43.757 34.5 51.45 26.7621 51.45 17.25C51.45 7.73786 43.757 0 34.3 0C24.843 0 17.15 7.73786 17.15 17.25C17.15 26.7621 24.843 34.5 34.3 34.5ZM34.3 9.85714C38.367 9.85714 41.65 13.1593 41.65 17.25C41.65 21.3407 38.367 24.6429 34.3 24.6429C30.233 24.6429 26.95 21.3407 26.95 17.25C26.95 13.1593 30.233 9.85714 34.3 9.85714ZM34.545 59.1429H13.573C18.424 56.6786 26.803 54.2143 34.3 54.2143C34.839 54.2143 35.427 54.2636 35.966 54.2636C37.632 50.6657 40.523 47.7086 44.002 45.3429C40.425 44.7021 37.044 44.3571 34.3 44.3571C22.834 44.3571 0 50.1236 0 61.6071V69H34.3V61.6071C34.3 60.7693 34.398 59.9314 34.545 59.1429ZM71.05 46.8214C62.034 46.8214 44.1 51.7993 44.1 61.6071V69H98V61.6071C98 51.7993 80.066 46.8214 71.05 46.8214ZM76.979 37.8514C80.703 35.7321 83.3 31.74 83.3 27.1071C83.3 23.8393 82.0094 20.7053 79.7121 18.3946C77.4147 16.0839 74.2989 14.7857 71.05 14.7857C67.8011 14.7857 64.6853 16.0839 62.3879 18.3946C60.0906 20.7053 58.8 23.8393 58.8 27.1071C58.8 31.74 61.397 35.7321 65.121 37.8514C66.885 38.8371 68.894 39.4286 71.05 39.4286C73.206 39.4286 75.215 38.8371 76.979 37.8514Z" fill="black"/>
</svg>
