<svg width="245" height="51" viewBox="0 0 245 51" fill="none" xmlns="http://www.w3.org/2000/svg">
<path d="M245 16L233.459 16.3754L239.555 26.1824L245 16ZM0.341495 1.75258C0.955398 2.28974 1.5862 2.83105 2.23364 3.37593L3.52145 1.84571C2.88362 1.30892 2.26256 0.775969 1.6585 0.247423L0.341495 1.75258ZM6.16956 6.56918C7.46215 7.58141 8.80824 8.60199 10.2063 9.6275L11.3892 8.01484C10.0077 7.00148 8.67838 5.99357 7.40267 4.99455L6.16956 6.56918ZM14.3328 12.5625C15.6943 13.502 17.0978 14.4429 18.542 15.3827L19.6329 13.7063C18.2036 12.7763 16.8152 11.8455 15.4686 10.9163L14.3328 12.5625ZM22.8291 18.0938C24.2407 18.9614 25.6865 19.8259 27.1654 20.6853L28.1703 18.956C26.7055 18.1049 25.2739 17.2488 23.8764 16.3899L22.8291 18.0938ZM31.5547 23.1656C33.0121 23.9664 34.4983 24.7608 36.0126 25.5471L36.9343 23.7721C35.4339 22.993 33.9615 22.206 32.5178 21.4128L31.5547 23.1656ZM40.5366 27.8298C42.0338 28.5637 43.5559 29.2886 45.1022 30.0031L45.9411 28.1875C44.4088 27.4795 42.9005 26.7611 41.4169 26.0339L40.5366 27.8298ZM49.7022 32.0655C51.2346 32.7317 52.7887 33.387 54.3641 34.0299L55.1197 32.1781C53.5585 31.541 52.0183 30.8916 50.4997 30.2313L49.7022 32.0655ZM59.0787 35.8917C60.635 36.4858 62.2104 37.0673 63.8043 37.6349L64.4752 35.7508C62.8956 35.1883 61.3344 34.6121 59.7921 34.0232L59.0787 35.8917ZM68.5871 39.2769C70.1797 39.8034 71.7895 40.3155 73.416 40.8121L74 38.8993C72.3883 38.4072 70.7931 37.8997 69.2149 37.378L68.5871 39.2769ZM78.2522 42.2281C79.8662 42.6805 81.4956 43.1172 83.1398 43.5371L83.6347 41.5993C82.0056 41.1833 80.3912 40.7506 78.792 40.3023L78.2522 42.2281ZM88.0554 44.7313C89.6851 45.107 91.3285 45.4659 92.9851 45.8068L93.3883 43.8479C91.7472 43.5101 90.1192 43.1547 88.5047 42.7824L88.0554 44.7313ZM97.9601 46.769C99.6066 47.067 101.265 47.347 102.936 47.6081L103.245 45.6321C101.59 45.3735 99.9472 45.0962 98.3164 44.801L97.9601 46.769ZM107.94 48.3282C109.605 48.5471 111.281 48.747 112.968 48.9268L113.18 46.9381C111.51 46.76 109.85 46.5621 108.201 46.3452L107.94 48.3282ZM117.991 49.3998C119.666 49.5368 121.352 49.6538 123.048 49.7498L123.161 47.753C121.482 47.6579 119.813 47.5421 118.153 47.4065L117.991 49.3998ZM128.087 49.9722C129.765 50.0253 131.451 50.0575 133.146 50.0683L133.159 48.0683C131.481 48.0577 129.811 48.0257 128.15 47.9732L128.087 49.9722ZM138.203 50.0362C139.878 50.0044 141.561 49.9512 143.252 49.8759L143.163 47.8779C141.489 47.9524 139.823 48.0051 138.165 48.0366L138.203 50.0362ZM148.311 49.5858C149.979 49.4686 151.655 49.3297 153.336 49.1684L153.145 47.1775C151.481 47.3372 149.822 47.4747 148.171 47.5907L148.311 49.5858ZM158.384 48.6184C160.042 48.4163 161.704 48.192 163.373 47.9451L163.08 45.9666C161.429 46.2111 159.783 46.433 158.142 46.6331L158.384 48.6184ZM168.382 47.1379C170.028 46.851 171.679 46.5417 173.335 46.2095L172.941 44.2486C171.302 44.5775 169.668 44.8836 168.039 45.1676L168.382 47.1379ZM178.292 45.1487C179.922 44.7783 181.556 44.3853 183.194 43.9692L182.702 42.0308C181.08 42.4427 179.462 42.8318 177.849 43.1985L178.292 45.1487ZM188.09 42.6601C189.699 42.2081 191.312 41.7336 192.928 41.236L192.339 39.3246C190.739 39.8173 189.142 40.2871 187.549 40.7346L188.09 42.6601ZM197.752 39.6851C199.336 39.1544 200.923 38.6013 202.512 38.0252L201.831 36.1449C200.256 36.7154 198.685 37.2632 197.117 37.7887L197.752 39.6851ZM207.258 36.24C208.812 35.634 210.369 35.0059 211.928 34.3551L211.157 32.5095C209.613 33.1542 208.071 33.7764 206.532 34.3766L207.258 36.24ZM216.591 32.3435C218.112 31.6664 219.634 30.9675 221.159 30.2463L220.303 28.4384C218.793 29.153 217.284 29.8456 215.778 30.5165L216.591 32.3435ZM225.737 28.0162C227.22 27.2725 228.706 26.5075 230.192 25.7209L229.257 23.9531C227.783 24.7329 226.311 25.4912 224.84 26.2283L225.737 28.0162ZM234.656 23.2955C236.109 22.4852 237.564 21.6538 239.019 20.8012L238.009 19.0754C236.565 19.921 235.123 20.7453 233.682 21.5487L234.656 23.2955Z" fill="#FD9317"/>
</svg>
