<svg width="246" height="45" viewBox="0 0 246 45" fill="none" xmlns="http://www.w3.org/2000/svg">
<path d="M245.467 39.5773L233.955 38.6807L240.487 29.1592L245.467 39.5773ZM0.414453 42.7519C1.05201 42.243 1.70663 41.7308 2.37804 41.2157L3.59537 42.8026C2.93393 43.31 2.28941 43.8143 1.66208 44.315L0.414453 42.7519ZM6.45427 38.2036C7.79128 37.2508 9.18213 36.2922 10.6251 35.3309L11.7339 36.9954C10.3081 37.9452 8.93451 38.892 7.61495 39.8324L6.45427 38.2036ZM14.88 32.5854C16.2827 31.7084 17.7272 30.8319 19.2125 29.9584L20.2264 31.6823C18.7566 32.5468 17.3275 33.4139 15.9403 34.2812L14.88 32.5854ZM23.6177 27.4438C25.0671 26.6409 26.5504 25.8426 28.0667 25.051L28.9924 26.8239C27.4907 27.6079 26.0218 28.3984 24.5869 29.1933L23.6177 27.4438ZM32.5636 22.7715C34.0557 22.0375 35.5763 21.3111 37.1246 20.594L37.9651 22.4088C36.4311 23.1193 34.9246 23.8389 33.4465 24.5661L32.5636 22.7715ZM41.7472 18.5181C43.276 17.8526 44.8293 17.1973 46.4064 16.5534L47.1623 18.405C45.5995 19.0431 44.0603 19.6925 42.5454 20.3519L41.7472 18.5181ZM51.0949 14.701C52.6557 14.1047 54.2379 13.5204 55.8407 12.9493L56.5119 14.8333C54.9235 15.3992 53.3555 15.9783 51.8086 16.5693L51.0949 14.701ZM60.6347 11.3026C62.2163 10.7793 63.8163 10.2696 65.4343 9.77463L66.0193 11.6871C64.4159 12.1777 62.8303 12.6828 61.2629 13.2013L60.6347 11.3026ZM70.2863 8.35052C71.9011 7.89653 73.5324 7.4577 75.1798 7.03515L75.6767 8.97243C74.0444 9.39114 72.4278 9.82598 70.8277 10.2759L70.2863 8.35052ZM80.075 5.83923C81.7078 5.4602 83.3552 5.09759 85.0168 4.75242L85.4236 6.71062C83.7774 7.0526 82.1451 7.41187 80.5272 7.78743L80.075 5.83923ZM89.9813 3.78162C91.6263 3.47995 93.2842 3.19578 94.9546 2.93004L95.2688 4.9052C93.6141 5.16845 91.9717 5.44996 90.342 5.74882L89.9813 3.78162ZM99.968 2.19371C101.626 1.97042 103.296 1.76567 104.977 1.58035L105.196 3.5683C103.531 3.75185 101.877 3.95465 100.235 4.17583L99.968 2.19371ZM110.008 1.08721C111.681 0.94373 113.365 0.819862 115.058 0.716444L115.18 2.71273C113.503 2.81514 111.836 2.9378 110.179 3.0799L110.008 1.08721ZM120.097 0.470932C121.777 0.409826 123.467 0.36921 125.165 0.349872L125.188 2.34975C123.506 2.36889 121.833 2.40911 120.17 2.46961L120.097 0.470932ZM130.209 0.355448C131.887 0.378314 133.573 0.422318 135.267 0.488199L135.19 2.48669C133.513 2.42147 131.843 2.3779 130.181 2.35526L130.209 0.355448ZM140.317 0.748727C141.989 0.856294 143.668 0.985517 145.354 1.13709L145.174 3.12906C143.506 2.97901 141.844 2.85109 140.189 2.74461L140.317 0.748727ZM150.395 1.65562C152.056 1.84804 153.723 2.06253 155.396 2.29973L155.115 4.27992C153.46 4.04513 151.809 3.83282 150.165 3.64233L150.395 1.65562ZM160.414 3.07733C162.06 3.35416 163.712 3.65333 165.367 3.97544L164.985 5.93864C163.346 5.6198 161.712 5.32366 160.083 5.04963L160.414 3.07733ZM170.335 5.00819C171.966 5.36918 173.601 5.75277 175.24 6.15953L174.759 8.10065C173.136 7.69799 171.517 7.31827 169.903 6.96093L170.335 5.00819ZM180.145 7.44327C181.756 7.88699 183.371 8.35343 184.989 8.84313L184.409 10.7574C182.808 10.2725 181.209 9.81076 179.614 9.37149L180.145 7.44327ZM189.82 10.3722C191.407 10.8964 192.997 11.4433 194.589 12.0135L193.914 13.8964C192.338 13.3318 190.764 12.7903 189.193 12.2713L189.82 10.3722ZM199.338 13.7809C200.896 14.3826 202.456 15.0069 204.018 15.6542L203.252 17.5018C201.705 16.8607 200.16 16.2425 198.617 15.6466L199.338 13.7809ZM208.679 17.6521C210.204 18.3277 211.73 19.0256 213.258 19.7462L212.405 21.5551C210.891 20.8412 209.379 20.1499 207.869 19.4807L208.679 17.6521ZM217.826 21.9664C219.314 22.7116 220.804 23.4786 222.294 24.2679L221.358 26.0354C219.881 25.2532 218.405 24.4931 216.93 23.7548L217.826 21.9664ZM226.766 26.7027C228.215 27.5127 229.664 28.344 231.114 29.1971L230.099 30.9207C228.662 30.0751 227.226 29.2511 225.79 28.4483L226.766 26.7027ZM235.463 31.8217C236.878 32.6969 238.294 33.5932 239.709 34.5108L238.622 36.189C237.218 35.2791 235.814 34.3905 234.411 33.5227L235.463 31.8217Z" fill="#FD9317"/>
</svg>
