<svg width="738" height="62" viewBox="0 0 738 62" fill="none" xmlns="http://www.w3.org/2000/svg">
<path d="M43.994 6.4V22.292H10.934V6.4H0.494V47H10.934V31.108H43.994V47H54.434V6.4H43.994ZM82.1444 47.58C96.2384 47.58 105.808 42.476 105.808 29.948C105.808 17.362 96.2384 12.258 82.1444 12.258C67.9924 12.258 58.4804 17.362 58.4804 29.948C58.4804 42.476 67.9924 47.58 82.1444 47.58ZM82.1444 39.286C72.9224 39.286 68.3984 37.024 68.3984 29.948C68.3984 22.814 72.9224 20.552 82.1444 20.552C91.3084 20.552 95.8324 22.814 95.8324 29.948C95.8324 37.024 91.3084 39.286 82.1444 39.286ZM169.858 12.838L158.664 39.17L148.224 12.838H136.392L125.952 39.228L114.758 12.838H103.68L119.05 47H132.274L142.308 23.22L152.342 47H165.566L180.936 12.838H169.858ZM222.317 38.242V6.4H211.877V47H253.637V38.242H222.317ZM293.924 12.838V31.978C290.85 35.574 283.658 38.996 276.988 38.996C268.81 38.996 266.374 35.226 266.374 27.976V12.838H256.398L256.282 31.746C256.398 44.332 264.924 47.58 274.03 47.58C282.324 47.58 289.052 44.854 293.924 41.026V47H303.842V12.838H293.924ZM308.223 0.599999V9.242H318.141V0.599999H308.223ZM308.223 12.838V47H318.141V12.838H308.223ZM359.326 0.599999V18.174C355.614 14.288 349.64 12.258 342.274 12.258C331.312 12.258 321.916 16.898 321.916 29.948C321.916 42.998 331.312 47.58 342.274 47.58C349.64 47.58 355.614 45.55 359.326 41.664V47H369.244V0.599999H359.326ZM345.58 39.286C336.706 39.286 331.892 36.676 331.892 29.948C331.892 23.162 336.706 20.552 345.58 20.552C354.454 20.552 359.326 23.162 359.326 29.948C359.326 36.676 354.454 39.286 345.58 39.286ZM373.869 0.599999V47H383.787V0.599999H373.869ZM425.576 12.838L412.236 41.026L397.62 12.838H386.6L404.29 47H409.394L402.492 61.5H413.454L436.538 12.838H425.576ZM540.345 6.4L528.397 38.358L515.637 6.4H502.819L490.117 38.3L478.111 6.4H466.859L482.867 47H497.251L509.257 16.434L521.205 47H535.647L551.655 6.4H540.345ZM571.689 47.58C585.783 47.58 595.353 42.476 595.353 29.948C595.353 17.362 585.783 12.258 571.689 12.258C557.537 12.258 548.025 17.362 548.025 29.948C548.025 42.476 557.537 47.58 571.689 47.58ZM571.689 39.286C562.467 39.286 557.943 37.024 557.943 29.948C557.943 22.814 562.467 20.552 571.689 20.552C580.853 20.552 585.377 22.814 585.377 29.948C585.377 37.024 580.853 39.286 571.689 39.286ZM626.563 12.258C620.183 12.258 614.151 14.056 609.047 18.638V12.838H599.129V47H609.047V26.526C615.079 21.828 621.459 20.552 627.027 20.552C629.927 20.552 632.537 20.9 635.785 21.712V13.418C633.465 12.838 630.623 12.258 626.563 12.258ZM691.589 12.838H674.653L649.771 28.208V0.599999H639.853V47H649.771V39.112L661.429 32.094L677.785 47H691.589L669.433 26.816L691.589 12.838ZM690.137 34.994C690.137 45.898 702.317 47.58 715.483 47.58C728.649 47.58 737.349 45.898 737.349 36.27C737.349 27.164 728.243 26.816 714.903 25.83C703.129 24.96 701.331 24.612 701.331 22.466C701.331 20.494 703.999 19.798 713.395 19.798C722.617 19.798 726.213 20.494 726.213 23.336H736.189C736.189 13.94 726.851 12.258 713.975 12.258C701.795 12.258 691.355 13.94 691.355 22.872C691.355 31.108 698.721 32.268 713.743 33.138C725.749 33.892 727.373 34.066 727.373 36.676C727.373 39.344 725.633 40.04 714.903 40.04C703.825 40.04 700.055 38.648 700.055 34.994H690.137Z" fill="#0B1D5E"/>
</svg>
