<svg width="108" height="30" viewBox="0 0 108 30" fill="none" xmlns="http://www.w3.org/2000/svg">
<path d="M7.77 16.895V3.575H0.555V23H20.535V16.895H7.77ZM37.407 6.35V15.341C36.1027 16.5897 34.0215 17.45 32.0513 17.45C29.0543 17.45 28.0275 16.229 28.0275 13.3707V6.35H21.3675V16.0902C21.3675 22.112 25.6133 23.2775 29.3595 23.2775C32.856 23.2775 35.409 22.1675 37.407 20.78V23H44.067V6.35H37.407ZM45.1881 0.8V5.24H51.8481V0.8H45.1881ZM45.1881 6.35V23H51.8481V6.35H45.1881ZM68.6721 0.8V8.6255C66.9239 6.8495 64.3709 6.0725 61.7901 6.0725C57.4889 6.0725 52.6881 7.9595 52.6881 14.675C52.6881 21.3905 57.4889 23.2775 61.7901 23.2775C64.3709 23.2775 66.9239 22.5005 68.6721 20.7245V23H75.3321V0.8H68.6721ZM64.0101 17.7275C61.0409 17.7275 59.3481 17.117 59.3481 14.675C59.3481 12.233 61.0409 11.6225 64.0101 11.6225C66.9794 11.6225 68.6721 12.233 68.6721 14.675C68.6721 17.117 66.9794 17.7275 64.0101 17.7275ZM76.4339 0.8V23H83.0939V0.8H76.4339ZM100.341 6.35L95.7065 17.9217L90.878 6.35H83.663L90.6005 23H93.653L90.878 29.9375H98.093L107.556 6.35H100.341Z" fill="black"/>
</svg>
