<svg width="461" height="85" viewBox="0 0 461 85" fill="none" xmlns="http://www.w3.org/2000/svg">
<path d="M257 36.5687L256.34 35.2215L257 36.5687ZM461 36.5687L460.038 19.275L445.542 28.7553L461 36.5687ZM0.188864 37.8305C0.971913 38.3339 1.76666 38.8878 2.57733 39.4885L4.36334 37.0781C3.50868 36.4448 2.65897 35.852 1.81114 35.3069L0.188864 37.8305ZM7.17028 43.1931C8.61429 44.4313 10.1079 45.7624 11.6745 47.1677L13.6778 44.9346C12.1095 43.5277 10.5945 42.1774 9.12304 40.9157L7.17028 43.1931ZM16.1648 51.1874C17.631 52.4876 19.1589 53.8224 20.7576 55.174L22.6945 52.883C21.1194 51.5514 19.6102 50.2331 18.1552 48.9428L16.1648 51.1874ZM25.4653 59.0185C27.0195 60.2401 28.6382 61.4628 30.3287 62.6748L32.0766 60.2366C30.4257 59.053 28.8424 57.8571 27.3192 56.6599L25.4653 59.0185ZM35.3722 66.1053C37.0458 67.1823 38.7849 68.2408 40.5952 69.2718L42.0798 66.6649C40.3189 65.6621 38.6261 64.6318 36.9957 63.5826L35.3722 66.1053ZM45.9881 72.1458C47.7722 73.0327 49.6199 73.8893 51.5357 74.7087L52.7155 71.9505C50.8535 71.154 49.0577 70.3215 47.3236 69.4595L45.9881 72.1458ZM57.2189 76.9508C59.0913 77.6289 61.0235 78.2704 63.0189 78.8704L63.8827 75.9975C61.9408 75.4136 60.0611 74.7894 58.2405 74.13L57.2189 76.9508ZM68.9191 80.4728C70.8592 80.9449 72.8546 81.378 74.9077 81.7681L75.4677 78.8208C73.4644 78.4402 71.5188 78.0179 69.6284 77.5579L68.9191 80.4728ZM80.9172 82.7601C82.8747 83.0358 84.8812 83.2734 86.9386 83.4699L87.2239 80.4836C85.2105 80.2912 83.2484 80.0588 81.3356 79.7894L80.9172 82.7601ZM93.0132 83.9206C95.0141 84.0274 97.0603 84.0965 99.1532 84.1257L99.1951 81.126C97.141 81.0974 95.1342 81.0295 93.1731 80.9248L93.0132 83.9206ZM105.174 84.1006C107.158 84.0572 109.182 83.979 111.248 83.8643L111.081 80.8689C109.049 80.9818 107.058 81.0586 105.108 81.1013L105.174 84.1006ZM117.348 83.4281C119.307 83.2576 121.3 83.0553 123.329 82.8199L122.983 79.8399C120.982 80.0721 119.017 80.2714 117.088 80.4394L117.348 83.4281ZM129.421 82.0281C131.361 81.7494 133.333 81.4413 135.336 81.103L134.837 78.1448C132.857 78.4792 130.91 78.7834 128.995 79.0586L129.421 82.0281ZM141.361 80.0116C143.291 79.6388 145.249 79.2388 147.237 78.8106L146.605 75.8779C144.638 76.3017 142.701 76.6974 140.792 77.066L141.361 80.0116ZM153.213 77.4579C155.122 77.0054 157.057 76.5276 159.018 76.0239L158.272 73.1182C156.328 73.6174 154.412 74.0907 152.521 74.5388L153.213 77.4579ZM164.974 74.4361C166.855 73.9167 168.759 73.374 170.686 72.8075L169.84 69.9293C167.928 70.4912 166.04 71.0294 164.175 71.5444L164.974 74.4361ZM176.54 71.0363C178.424 70.45 180.331 69.8416 182.259 69.2106L181.326 66.3594C179.411 66.9859 177.519 67.5899 175.649 68.1718L176.54 71.0363ZM187.989 67.2907C189.892 66.6383 191.816 65.9645 193.762 65.2686L192.751 62.4439C190.818 63.1353 188.906 63.8048 187.016 64.4528L187.989 67.2907ZM199.357 63.2281C201.242 62.5279 203.145 61.8076 205.069 61.0667L203.991 58.2672C202.078 59.0038 200.185 59.72 198.312 60.4159L199.357 63.2281ZM210.682 58.8684C212.517 58.1377 214.37 57.3887 216.241 56.6211L215.102 53.8456C213.241 54.6093 211.398 55.3543 209.572 56.0811L210.682 58.8684ZM221.906 54.2622C223.722 53.4948 225.555 52.7102 227.404 51.9083L226.211 49.156C224.37 49.9542 222.546 50.735 220.738 51.4986L221.906 54.2622ZM232.905 49.4925C234.754 48.6702 236.619 47.8308 238.501 46.9741L237.257 44.2438C235.384 45.0969 233.527 45.9326 231.686 46.7512L232.905 49.4925ZM243.937 44.4711C245.73 43.6362 247.538 42.7858 249.361 41.9198L248.073 39.2102C246.258 40.0729 244.457 40.9198 242.671 41.7513L243.937 44.4711ZM254.871 39.2743C255.797 38.8255 256.727 38.3727 257.66 37.9159L256.34 35.2215C255.411 35.6766 254.485 36.1277 253.563 36.5749L254.871 39.2743ZM257.66 37.9159C258.598 37.4567 259.532 37.0028 260.462 36.5544L259.159 33.852C258.224 34.3031 257.284 34.7596 256.34 35.2215L257.66 37.9159ZM265.998 33.9277C267.847 33.0643 269.68 32.2226 271.498 31.402L270.264 28.6677C268.434 29.4936 266.589 30.3407 264.729 31.2094L265.998 33.9277ZM277.132 28.9046C278.994 28.0943 280.84 27.3066 282.668 26.541L281.51 23.7737C279.668 24.5447 277.81 25.3379 275.935 26.1537L277.132 28.9046ZM288.391 24.1955C290.28 23.4379 292.15 22.7044 294.002 21.9945L292.929 19.1932C291.062 19.9087 289.177 20.6479 287.274 21.4111L288.391 24.1955ZM299.783 19.8332C301.695 19.1363 303.588 18.4649 305.46 17.8186L304.481 14.9828C302.592 15.6348 300.684 16.3118 298.755 17.0146L299.783 19.8332ZM311.31 15.8584C313.252 15.2276 315.172 14.6243 317.07 14.0476L316.197 11.1772C314.281 11.7595 312.343 12.3686 310.383 13.0051L311.31 15.8584ZM322.968 12.3205C324.946 11.7632 326.9 11.2356 328.828 10.7366L328.077 7.83225C326.127 8.3366 324.153 8.86985 322.154 9.43287L322.968 12.3205ZM334.74 9.27792C336.757 8.80491 338.745 8.36401 340.705 7.95413L340.091 5.01766C338.107 5.43257 336.095 5.87873 334.055 6.3572L334.74 9.27792ZM346.628 6.79297C348.672 6.41952 350.684 6.08057 352.664 5.77475L352.206 2.80991C350.198 3.11998 348.16 3.46351 346.089 3.84182L346.628 6.79297ZM358.694 4.93211C360.733 4.67778 362.736 4.45941 364.704 4.27537L364.424 1.2884C362.425 1.47536 360.391 1.69709 358.323 1.95519L358.694 4.93211ZM370.765 3.80854C372.836 3.68392 374.865 3.59824 376.853 3.54936L376.779 0.550262C374.755 0.60003 372.69 0.687228 370.585 0.813954L370.765 3.80854ZM382.922 3.51378C384.986 3.54119 387.002 3.60922 388.972 3.71512L389.133 0.719451C387.122 0.611348 385.065 0.541987 382.962 0.514041L382.922 3.51378ZM395.001 4.16865C397.056 4.3685 399.056 4.61051 401.002 4.8911L401.43 1.92181C399.438 1.63456 397.392 1.38702 395.292 1.18273L395.001 4.16865ZM406.964 5.90013C408.996 6.29675 410.964 6.73617 412.867 7.21349L413.597 4.30357C411.642 3.81328 409.622 3.36237 407.538 2.95566L406.964 5.90013ZM418.691 8.84806C420.673 9.46609 422.577 10.1252 424.405 10.8187L425.469 8.01369C423.585 7.29882 421.623 6.62 419.584 5.98405L418.691 8.84806ZM429.975 13.1365C431.864 13.9954 433.658 14.889 435.359 15.8075L436.784 13.1676C435.023 12.2167 433.168 11.2928 431.217 10.4056L429.975 13.1365ZM440.545 18.8531C442.313 19.9812 443.958 21.129 445.484 22.2808L447.291 19.8861C445.703 18.6873 443.993 17.4946 442.159 16.324L440.545 18.8531ZM450.117 26.0934C451.711 27.5261 453.124 28.9368 454.367 30.2939L456.58 28.2684C455.271 26.8391 453.788 25.3598 452.123 23.8624L450.117 26.0934Z" fill="#FD9317"/>
</svg>
