<svg width="744" height="121" viewBox="0 0 744 121" fill="none" xmlns="http://www.w3.org/2000/svg">
<path d="M44.9 6V37.56L16.22 6H1.58V48H12.38V16.5L41 48H55.7V6H44.9ZM84.4053 48.6C98.9853 48.6 108.885 43.32 108.885 30.36C108.885 17.34 98.9853 12.06 84.4053 12.06C69.7653 12.06 59.9253 17.34 59.9253 30.36C59.9253 43.32 69.7653 48.6 84.4053 48.6ZM84.4053 40.02C74.8653 40.02 70.1853 37.68 70.1853 30.36C70.1853 22.98 74.8653 20.64 84.4053 20.64C93.8853 20.64 98.5653 22.98 98.5653 30.36C98.5653 37.68 93.8853 40.02 84.4053 40.02ZM166.657 48.6C185.077 48.6 193.057 40.86 193.057 26.94C193.057 13.08 185.077 5.4 166.657 5.4C148.177 5.4 140.257 13.02 140.257 26.94C140.257 40.92 148.177 48.6 166.657 48.6ZM166.657 39.54C155.437 39.54 151.057 35.58 151.057 26.94C151.057 18.36 155.377 14.46 166.657 14.46C177.937 14.46 182.257 18.42 182.257 26.94C182.257 35.52 177.877 39.54 166.657 39.54ZM228.123 12.06C219.543 12.06 212.583 14.88 207.543 18.84V12.66H197.283V48H207.543V28.2C210.723 24.48 218.163 20.94 225.063 20.94C233.523 20.94 236.043 24.84 236.043 32.34V48H246.363L246.483 28.44C246.363 15.42 237.543 12.06 228.123 12.06ZM273.942 40.26C267.102 40.26 261.702 38.4 260.562 32.76H298.722C298.722 16.68 287.982 12.06 274.542 12.06C260.202 12.06 250.062 17.34 250.062 30.36C250.062 43.32 260.502 48.6 273.942 48.6C287.022 48.6 295.782 44.34 298.122 35.34H287.922C285.342 38.94 281.022 40.26 273.942 40.26ZM274.482 19.86C280.962 19.86 286.002 21.24 287.742 26.22H260.922C262.542 21.24 267.462 19.86 274.482 19.86ZM330.101 33.54C330.101 45.66 340.361 48.6 357.581 48.6C373.121 48.6 383.741 46.32 383.741 35.1C383.741 24.48 373.481 23.58 356.921 22.68C344.681 21.96 342.161 21.36 342.161 18.12C342.161 15 344.681 13.98 355.301 13.98C366.521 13.98 371.141 15.12 371.141 19.74H381.941C381.941 9.36 372.341 5.4 356.501 5.4C340.781 5.4 331.361 8.34 331.361 17.58C331.361 27 338.621 29.88 356.921 30.72C370.541 31.38 372.941 31.98 372.941 35.46C372.941 38.76 369.521 40.02 358.181 40.02C344.501 40.02 340.901 37.98 340.901 33.54H330.101ZM418.787 12.06C410.207 12.06 403.247 14.88 398.207 18.84V-7.15256e-07H387.947V48H398.207V28.2C401.387 24.48 408.827 20.94 415.727 20.94C424.187 20.94 426.707 24.84 426.707 32.34V48H437.027L437.147 28.44C437.027 15.42 428.207 12.06 418.787 12.06ZM465.206 48.6C479.786 48.6 489.686 43.32 489.686 30.36C489.686 17.34 479.786 12.06 465.206 12.06C450.566 12.06 440.726 17.34 440.726 30.36C440.726 43.32 450.566 48.6 465.206 48.6ZM465.206 40.02C455.666 40.02 450.986 37.68 450.986 30.36C450.986 22.98 455.666 20.64 465.206 20.64C474.686 20.64 479.366 22.98 479.366 30.36C479.366 37.68 474.686 40.02 465.206 40.02ZM532.472 12.66V32.46C529.292 36.18 521.852 39.72 514.952 39.72C506.492 39.72 503.972 35.82 503.972 28.32V12.66H493.652L493.532 32.22C493.652 45.24 502.472 48.6 511.892 48.6C520.472 48.6 527.432 45.78 532.472 41.82V48H542.732V12.66H532.472ZM547.264 -7.15256e-07V48H557.524V-7.15256e-07H547.264ZM600.129 -7.15256e-07V18.18C596.289 14.16 590.109 12.06 582.489 12.06C571.149 12.06 561.429 16.86 561.429 30.36C561.429 43.86 571.149 48.6 582.489 48.6C590.109 48.6 596.289 46.5 600.129 42.48V48H610.389V-7.15256e-07H600.129ZM585.909 40.02C576.729 40.02 571.749 37.32 571.749 30.36C571.749 23.34 576.729 20.64 585.909 20.64C595.089 20.64 600.129 23.34 600.129 30.36C600.129 37.32 595.089 40.02 585.909 40.02ZM670.847 12.06C663.227 12.06 657.047 14.16 653.207 18.18V-7.15256e-07H642.947V48H653.207V42.48C657.047 46.5 663.227 48.6 670.847 48.6C682.187 48.6 691.907 43.86 691.907 30.36C691.907 16.86 682.187 12.06 670.847 12.06ZM667.427 40.02C658.247 40.02 653.207 37.32 653.207 30.36C653.207 23.34 658.247 20.64 667.427 20.64C676.607 20.64 681.587 23.34 681.587 30.36C681.587 37.32 676.607 40.02 667.427 40.02ZM718.727 40.26C711.887 40.26 706.487 38.4 705.347 32.76H743.507C743.507 16.68 732.767 12.06 719.327 12.06C704.987 12.06 694.847 17.34 694.847 30.36C694.847 43.32 705.287 48.6 718.727 48.6C731.807 48.6 740.567 44.34 742.907 35.34H732.707C730.127 38.94 725.807 40.26 718.727 40.26ZM719.267 19.86C725.747 19.86 730.787 21.24 732.527 26.22H705.707C707.327 21.24 712.247 19.86 719.267 19.86ZM25.58 84.06C18.2 84.06 11.12 85.38 3.92 87.72L7.58 95.22C14.84 93.06 20.48 92.64 25.1 92.64C29.9 92.64 38.54 93.18 38.54 99.9C33.92 98.34 28.34 97.38 22.28 97.38C11.06 97.38 0.98 100.26 0.98 109.44C0.98 117.42 7.16 120.6 17.06 120.6C25.4 120.6 32.3 118.68 38.54 115.62V120H48.86V102.18C48.74 88.8 40.34 84.06 25.58 84.06ZM38.54 109.02C33.26 111.3 25.58 113.04 20 113.04C14.66 113.04 11.24 112.74 11.24 109.02C11.24 105.42 15.86 104.1 23.54 104.1C30.08 104.1 34.94 105.12 38.54 106.26V109.02ZM119.903 84.66L106.103 112.74L92.2433 84.66H80.8433L98.7233 120H113.363L131.303 84.66H119.903ZM133.885 72V80.94H144.145V72H133.885ZM133.885 84.66V120H144.145V84.66H133.885ZM148.05 102.36C148.05 115.32 157.89 120.6 172.53 120.6C185.73 120.6 195.03 116.28 196.71 105.9H186.21C184.83 110.46 179.97 112.02 172.53 112.02C163.71 112.02 158.31 109.68 158.31 102.36C158.31 94.98 163.71 92.64 172.53 92.64C179.97 92.64 184.83 94.2 186.21 98.76H196.71C195.03 88.38 185.73 84.06 172.53 84.06C157.89 84.06 148.05 89.34 148.05 102.36ZM233.805 93.24V84.66H217.065V74.4L206.745 77.34V84.66H197.445V93.24H206.745V109.38C206.745 117.18 212.625 120.6 221.745 120.6C226.485 120.6 230.385 120.3 233.805 119.7V111.42C229.665 112.02 227.865 112.02 224.625 112.02C218.385 112.02 217.065 110.28 217.065 103.44V93.24H233.805ZM238.006 72V80.94H248.266V72H238.006ZM238.006 84.66V120H248.266V84.66H238.006ZM314.736 84.06C305.976 84.06 299.676 87.12 295.116 90.54C292.416 85.62 287.376 84.06 282.036 84.06C273.276 84.06 267.516 87.36 263.676 90.42V84.66H253.416V120H263.676V99.18C266.616 96 272.376 92.94 278.316 92.94C285.636 92.94 286.896 96.84 286.896 104.34V120H297.156L297.276 100.2C297.276 99.54 297.276 98.94 297.216 98.34C300.336 95.52 305.616 92.94 311.016 92.94C318.336 92.94 319.596 96.84 319.596 104.34V120H329.856L329.976 100.2C329.856 87.42 322.656 84.06 314.736 84.06ZM386.456 120.6C401.036 120.6 410.936 115.32 410.936 102.36C410.936 89.34 401.036 84.06 386.456 84.06C371.816 84.06 361.976 89.34 361.976 102.36C361.976 115.32 371.816 120.6 386.456 120.6ZM386.456 112.02C376.916 112.02 372.236 109.68 372.236 102.36C372.236 94.98 376.916 92.64 386.456 92.64C395.936 92.64 400.616 94.98 400.616 102.36C400.616 109.68 395.936 112.02 386.456 112.02ZM439.43 78.96C442.07 78.96 444.47 79.08 446.81 79.26V72C441.59 71.4 439.73 71.4 436.19 71.4C425.87 71.4 421.55 74.82 421.55 82.02V84.66H412.25V93.24H421.55V120H431.87V93.24H446.81V84.66H431.87C432.05 80.22 433.55 78.96 439.43 78.96ZM505.348 78.96C507.988 78.96 510.388 79.08 512.728 79.26V72C507.508 71.4 505.648 71.4 502.108 71.4C491.788 71.4 487.468 74.82 487.468 82.02V84.66H478.167V93.24H487.468V120H497.788V93.24H512.728V84.66H497.788C497.968 80.22 499.468 78.96 505.348 78.96ZM545.292 84.06C538.692 84.06 532.452 85.92 527.172 90.66V84.66H516.912V120H527.172V98.82C533.412 93.96 540.012 92.64 545.772 92.64C548.772 92.64 551.472 93 554.832 93.84V85.26C552.432 84.66 549.492 84.06 545.292 84.06ZM579.994 84.06C572.614 84.06 565.534 85.38 558.334 87.72L561.994 95.22C569.254 93.06 574.894 92.64 579.514 92.64C584.314 92.64 592.954 93.18 592.954 99.9C588.334 98.34 582.754 97.38 576.694 97.38C565.474 97.38 555.394 100.26 555.394 109.44C555.394 117.42 561.574 120.6 571.474 120.6C579.814 120.6 586.714 118.68 592.954 115.62V120H603.274V102.18C603.154 88.8 594.754 84.06 579.994 84.06ZM592.954 109.02C587.674 111.3 579.994 113.04 574.414 113.04C569.074 113.04 565.654 112.74 565.654 109.02C565.654 105.42 570.274 104.1 577.954 104.1C584.494 104.1 589.354 105.12 592.954 106.26V109.02ZM646.964 84.66V104.46C643.784 108.18 636.344 111.72 629.444 111.72C620.984 111.72 618.464 107.82 618.464 100.32V84.66H608.144L608.024 104.22C608.144 117.24 616.964 120.6 626.384 120.6C634.964 120.6 641.924 117.78 646.964 113.82V120H657.224V84.66H646.964ZM699.856 72V90.18C696.016 86.16 689.836 84.06 682.216 84.06C670.876 84.06 661.156 88.86 661.156 102.36C661.156 115.86 670.876 120.6 682.216 120.6C689.836 120.6 696.016 118.5 699.856 114.48V120H710.116V72H699.856ZM685.636 112.02C676.456 112.02 671.476 109.32 671.476 102.36C671.476 95.34 676.456 92.64 685.636 92.64C694.816 92.64 699.856 95.34 699.856 102.36C699.856 109.32 694.816 112.02 685.636 112.02Z" fill="#0B1D5E"/>
</svg>
