<svg width="496" height="33" viewBox="0 0 496 33" fill="none" xmlns="http://www.w3.org/2000/svg">
<path d="M22.9736 1.54251V7.28592H14.7501V32H8.74565V7.28592H0.565639V1.54251H22.9736ZM28.9156 13.9866C29.4377 12.5942 30.2934 11.55 31.4827 10.8538C32.701 10.1576 34.0498 9.80954 35.5292 9.80954V16.0751C33.8178 15.872 32.2804 16.2201 30.9171 17.1193C29.5827 18.0186 28.9156 19.5124 28.9156 21.6009V32H23.3027V10.2447H28.9156V13.9866ZM53.1704 10.2447H58.7833V32H53.1704V29.5634C51.8071 31.5939 49.646 32.6091 46.6873 32.6091C44.3087 32.6091 42.3362 31.8115 40.7699 30.2161C39.2325 28.6207 38.4638 26.4161 38.4638 23.6024V10.2447H44.0767V22.9063C44.0767 24.3566 44.4683 25.4734 45.2515 26.2566C46.0347 27.0108 47.0789 27.3879 48.3842 27.3879C49.8346 27.3879 50.9949 26.9383 51.8651 26.039C52.7353 25.1398 53.1704 23.791 53.1704 21.9925V10.2447ZM68.9318 16.4232C68.9318 17.0033 69.3089 17.4819 70.0631 17.859C70.8463 18.2071 71.789 18.5262 72.8913 18.8163C73.9936 19.0773 75.0958 19.4254 76.1981 19.8605C77.3004 20.2666 78.2286 20.9628 78.9828 21.949C79.766 22.9353 80.1576 24.1681 80.1576 25.6474C80.1576 27.881 79.3164 29.6069 77.634 30.8252C75.9806 32.0145 73.9065 32.6091 71.4119 32.6091C66.9448 32.6091 63.8991 30.8832 62.2747 27.4314L67.1479 24.6902C67.786 26.5757 69.2074 27.5184 71.4119 27.5184C73.4134 27.5184 74.4142 26.8947 74.4142 25.6474C74.4142 25.0673 74.0226 24.6032 73.2394 24.2551C72.4852 23.878 71.557 23.5444 70.4547 23.2543C69.3524 22.9643 68.2502 22.6017 67.1479 22.1666C66.0456 21.7315 65.1029 21.0498 64.3197 20.1216C63.5655 19.1643 63.1884 17.9751 63.1884 16.5537C63.1884 14.4072 63.9716 12.7248 65.538 11.5065C67.1334 10.2592 69.1059 9.6355 71.4554 9.6355C73.2249 9.6355 74.8348 10.0416 76.2851 10.8538C77.7355 11.637 78.8813 12.7683 79.7225 14.2476L74.9363 16.8583C74.2401 15.3789 73.0798 14.6392 71.4554 14.6392C70.7303 14.6392 70.1211 14.7988 69.628 15.1178C69.1639 15.4369 68.9318 15.872 68.9318 16.4232ZM95.574 15.64H90.6573V24.6902C90.6573 25.4444 90.8458 25.9955 91.2229 26.3436C91.6 26.6917 92.1511 26.8947 92.8763 26.9528C93.6015 26.9818 94.5007 26.9673 95.574 26.9092V32C91.716 32.4351 88.9893 32.0725 87.394 30.9122C85.8276 29.7519 85.0444 27.6779 85.0444 24.6902V15.64H81.2589V10.2447H85.0444V5.85007L90.6573 4.15315V10.2447H95.574V15.64ZM117.015 26.2566H129.85V32H111.01V1.54251H129.633V7.28592H117.015V13.769H128.545V19.4254H117.015V26.2566ZM145.918 9.6355C148.296 9.6355 150.254 10.4332 151.791 12.0286C153.358 13.624 154.141 15.8285 154.141 18.6422V32H148.528V19.3384C148.528 17.888 148.137 16.7858 147.353 16.0316C146.57 15.2484 145.526 14.8568 144.221 14.8568C142.77 14.8568 141.61 15.3064 140.74 16.2056C139.87 17.1048 139.434 18.4537 139.434 20.2521V32H133.822V10.2447H139.434V12.6812C140.798 10.6508 142.959 9.6355 145.918 9.6355ZM175.468 10.2447H181.081V32H175.468V29.4329C173.785 31.5504 171.421 32.6091 168.376 32.6091C165.475 32.6091 162.98 31.5069 160.892 29.3023C158.832 27.0688 157.802 24.3421 157.802 21.1223C157.802 17.9025 158.832 15.1904 160.892 12.9858C162.98 10.7523 165.475 9.6355 168.376 9.6355C171.421 9.6355 173.785 10.6943 175.468 12.8118V10.2447ZM165.112 25.5604C166.243 26.6917 167.679 27.2573 169.42 27.2573C171.16 27.2573 172.596 26.6917 173.727 25.5604C174.888 24.4001 175.468 22.9208 175.468 21.1223C175.468 19.3239 174.888 17.859 173.727 16.7277C172.596 15.5675 171.16 14.9873 169.42 14.9873C167.679 14.9873 166.243 15.5675 165.112 16.7277C163.981 17.859 163.415 19.3239 163.415 21.1223C163.415 22.9208 163.981 24.4001 165.112 25.5604ZM198.832 9.6355C201.762 9.6355 204.256 10.7523 206.316 12.9858C208.404 15.1904 209.449 17.9025 209.449 21.1223C209.449 24.3421 208.404 27.0688 206.316 29.3023C204.256 31.5069 201.762 32.6091 198.832 32.6091C195.786 32.6091 193.437 31.5504 191.783 29.4329V32H186.17V1.54251H191.783V12.8118C193.437 10.6943 195.786 9.6355 198.832 9.6355ZM193.48 25.5604C194.611 26.6917 196.047 27.2573 197.788 27.2573C199.528 27.2573 200.964 26.6917 202.095 25.5604C203.256 24.4001 203.836 22.9208 203.836 21.1223C203.836 19.3239 203.256 17.859 202.095 16.7277C200.964 15.5675 199.528 14.9873 197.788 14.9873C196.047 14.9873 194.611 15.5675 193.48 16.7277C192.349 17.859 191.783 19.3239 191.783 21.1223C191.783 22.9208 192.349 24.4001 193.48 25.5604ZM213.407 32V0.237191H219.02V32H213.407ZM228.9 23.4284C229.654 26.1551 231.699 27.5184 235.035 27.5184C237.181 27.5184 238.806 26.7932 239.908 25.3429L244.433 27.9535C242.287 31.0573 239.125 32.6091 234.948 32.6091C231.351 32.6091 228.465 31.5214 226.289 29.3458C224.114 27.1703 223.026 24.4291 223.026 21.1223C223.026 17.8445 224.099 15.1178 226.246 12.9423C228.392 10.7378 231.148 9.6355 234.513 9.6355C237.704 9.6355 240.329 10.7378 242.388 12.9423C244.477 15.1469 245.521 17.8735 245.521 21.1223C245.521 21.8475 245.448 22.6162 245.303 23.4284H228.9ZM228.813 19.0773H239.908C239.589 17.598 238.922 16.4957 237.907 15.7705C236.92 15.0453 235.789 14.6827 234.513 14.6827C233.004 14.6827 231.757 15.0743 230.771 15.8575C229.785 16.6117 229.132 17.685 228.813 19.0773ZM253.767 16.4232C253.767 17.0033 254.144 17.4819 254.899 17.859C255.682 18.2071 256.625 18.5262 257.727 18.8163C258.829 19.0773 259.931 19.4254 261.034 19.8605C262.136 20.2666 263.064 20.9628 263.818 21.949C264.601 22.9353 264.993 24.1681 264.993 25.6474C264.993 27.881 264.152 29.6069 262.469 30.8252C260.816 32.0145 258.742 32.6091 256.247 32.6091C251.78 32.6091 248.735 30.8832 247.11 27.4314L251.983 24.6902C252.622 26.5757 254.043 27.5184 256.247 27.5184C258.249 27.5184 259.25 26.8947 259.25 25.6474C259.25 25.0673 258.858 24.6032 258.075 24.2551C257.321 23.878 256.392 23.5444 255.29 23.2543C254.188 22.9643 253.086 22.6017 251.983 22.1666C250.881 21.7315 249.938 21.0498 249.155 20.1216C248.401 19.1643 248.024 17.9751 248.024 16.5537C248.024 14.4072 248.807 12.7248 250.373 11.5065C251.969 10.2592 253.941 9.6355 256.291 9.6355C258.06 9.6355 259.67 10.0416 261.121 10.8538C262.571 11.637 263.717 12.7683 264.558 14.2476L259.772 16.8583C259.076 15.3789 257.915 14.6392 256.291 14.6392C255.566 14.6392 254.957 14.7988 254.463 15.1178C253.999 15.4369 253.767 15.872 253.767 16.4232ZM294.399 32.6091C289.816 32.6091 286.031 31.0863 283.043 28.0405C280.055 24.9948 278.562 21.2384 278.562 16.7713C278.562 12.2752 280.055 8.51873 283.043 5.50198C286.031 2.45624 289.816 0.933361 294.399 0.933361C297.155 0.933361 299.693 1.58602 302.014 2.89134C304.363 4.16766 306.191 5.90809 307.496 8.11263L302.318 11.1149C301.564 9.75153 300.491 8.69277 299.099 7.93858C297.706 7.15539 296.14 6.76379 294.399 6.76379C291.441 6.76379 289.048 7.69202 287.22 9.54848C285.422 11.4049 284.523 13.8125 284.523 16.7713C284.523 19.701 285.422 22.0941 287.22 23.9505C289.048 25.807 291.441 26.7352 294.399 26.7352C296.14 26.7352 297.706 26.3581 299.099 25.6039C300.52 24.8207 301.593 23.762 302.318 22.4276L307.496 25.4299C306.191 27.6344 304.378 29.3894 302.057 30.6947C299.737 31.971 297.184 32.6091 294.399 32.6091ZM329.587 29.3023C327.353 31.5069 324.627 32.6091 321.407 32.6091C318.187 32.6091 315.46 31.5069 313.227 29.3023C311.022 27.0688 309.92 24.3421 309.92 21.1223C309.92 17.9025 311.022 15.1904 313.227 12.9858C315.46 10.7523 318.187 9.6355 321.407 9.6355C324.627 9.6355 327.353 10.7523 329.587 12.9858C331.82 15.1904 332.937 17.9025 332.937 21.1223C332.937 24.3421 331.82 27.0688 329.587 29.3023ZM317.186 25.4299C318.317 26.5612 319.724 27.1268 321.407 27.1268C323.089 27.1268 324.496 26.5612 325.627 25.4299C326.759 24.2986 327.324 22.8628 327.324 21.1223C327.324 19.3819 326.759 17.946 325.627 16.8148C324.496 15.6835 323.089 15.1178 321.407 15.1178C319.724 15.1178 318.317 15.6835 317.186 16.8148C316.084 17.946 315.533 19.3819 315.533 21.1223C315.533 22.8628 316.084 24.2986 317.186 25.4299ZM360.947 9.6355C363.442 9.6355 365.429 10.4477 366.908 12.0721C368.416 13.6965 369.171 15.872 369.171 18.5987V32H363.558V18.9903C363.558 17.685 363.239 16.6697 362.6 15.9446C361.962 15.2194 361.063 14.8568 359.903 14.8568C358.626 14.8568 357.626 15.2774 356.901 16.1186C356.204 16.9598 355.856 18.1781 355.856 19.7735V32H350.243V18.9903C350.243 17.685 349.924 16.6697 349.286 15.9446C348.648 15.2194 347.749 14.8568 346.589 14.8568C345.341 14.8568 344.34 15.2774 343.586 16.1186C342.861 16.9598 342.499 18.1781 342.499 19.7735V32H336.886V10.2447H342.499V12.5507C343.804 10.6072 345.82 9.6355 348.547 9.6355C351.215 9.6355 353.188 10.6798 354.464 12.7683C355.914 10.6798 358.075 9.6355 360.947 9.6355ZM397.999 9.6355C400.494 9.6355 402.481 10.4477 403.96 12.0721C405.468 13.6965 406.223 15.872 406.223 18.5987V32H400.61V18.9903C400.61 17.685 400.291 16.6697 399.653 15.9446C399.014 15.2194 398.115 14.8568 396.955 14.8568C395.679 14.8568 394.678 15.2774 393.953 16.1186C393.256 16.9598 392.908 18.1781 392.908 19.7735V32H387.296V18.9903C387.296 17.685 386.976 16.6697 386.338 15.9446C385.7 15.2194 384.801 14.8568 383.641 14.8568C382.393 14.8568 381.393 15.2774 380.638 16.1186C379.913 16.9598 379.551 18.1781 379.551 19.7735V32H373.938V10.2447H379.551V12.5507C380.856 10.6072 382.872 9.6355 385.599 9.6355C388.267 9.6355 390.24 10.6798 391.516 12.7683C392.966 10.6798 395.127 9.6355 397.999 9.6355ZM415.732 23.4284C416.487 26.1551 418.532 27.5184 421.867 27.5184C424.014 27.5184 425.638 26.7932 426.741 25.3429L431.266 27.9535C429.119 31.0573 425.957 32.6091 421.78 32.6091C418.184 32.6091 415.297 31.5214 413.122 29.3458C410.946 27.1703 409.859 24.4291 409.859 21.1223C409.859 17.8445 410.932 15.1178 413.078 12.9423C415.225 10.7378 417.981 9.6355 421.345 9.6355C424.536 9.6355 427.161 10.7378 429.221 12.9423C431.309 15.1469 432.354 17.8735 432.354 21.1223C432.354 21.8475 432.281 22.6162 432.136 23.4284H415.732ZM415.645 19.0773H426.741C426.422 17.598 425.754 16.4957 424.739 15.7705C423.753 15.0453 422.622 14.6827 421.345 14.6827C419.837 14.6827 418.59 15.0743 417.603 15.8575C416.617 16.6117 415.965 17.685 415.645 19.0773ZM441.885 13.9866C442.407 12.5942 443.263 11.55 444.452 10.8538C445.67 10.1576 447.019 9.80954 448.498 9.80954V16.0751C446.787 15.872 445.25 16.2201 443.886 17.1193C442.552 18.0186 441.885 19.5124 441.885 21.6009V32H436.272V10.2447H441.885V13.9866ZM461.329 32.6091C458.051 32.6091 455.31 31.5069 453.106 29.3023C450.93 27.0978 449.842 24.3711 449.842 21.1223C449.842 17.8735 450.93 15.1469 453.106 12.9423C455.31 10.7378 458.051 9.6355 461.329 9.6355C463.447 9.6355 465.376 10.1431 467.116 11.1584C468.857 12.1736 470.176 13.537 471.076 15.2484L466.246 18.0766C465.811 17.1774 465.144 16.4667 464.245 15.9446C463.374 15.4224 462.388 15.1614 461.286 15.1614C459.603 15.1614 458.211 15.727 457.109 16.8583C456.006 17.9605 455.455 19.3819 455.455 21.1223C455.455 22.8337 456.006 24.2551 457.109 25.3864C458.211 26.4886 459.603 27.0398 461.286 27.0398C462.417 27.0398 463.418 26.7932 464.288 26.3001C465.187 25.778 465.854 25.0673 466.29 24.1681L471.163 26.9528C470.205 28.6642 468.857 30.042 467.116 31.0863C465.376 32.1015 463.447 32.6091 461.329 32.6091ZM478.534 23.4284C479.288 26.1551 481.333 27.5184 484.669 27.5184C486.816 27.5184 488.44 26.7932 489.542 25.3429L494.067 27.9535C491.921 31.0573 488.759 32.6091 484.582 32.6091C480.985 32.6091 478.099 31.5214 475.923 29.3458C473.748 27.1703 472.66 24.4291 472.66 21.1223C472.66 17.8445 473.733 15.1178 475.88 12.9423C478.026 10.7378 480.782 9.6355 484.147 9.6355C487.338 9.6355 489.963 10.7378 492.022 12.9423C494.111 15.1469 495.155 17.8735 495.155 21.1223C495.155 21.8475 495.083 22.6162 494.938 23.4284H478.534ZM478.447 19.0773H489.542C489.223 17.598 488.556 16.4957 487.541 15.7705C486.555 15.0453 485.423 14.6827 484.147 14.6827C482.639 14.6827 481.391 15.0743 480.405 15.8575C479.419 16.6117 478.766 17.685 478.447 19.0773Z" fill="#0B1D5E"/>
</svg>
