<svg width="997" height="58" viewBox="0 0 997 58" fill="none" xmlns="http://www.w3.org/2000/svg">
<path d="M70.5 5.5L59.17 35.805L47.07 5.5H34.915L22.87 35.75L11.485 5.5H0.815L15.995 44H29.635L41.02 15.015L52.35 44H66.045L81.225 5.5H70.5ZM101.514 11.055C94.7494 11.055 88.2594 12.265 81.6594 14.41L85.0144 21.285C91.6694 19.305 96.8394 18.92 101.074 18.92C105.474 18.92 113.394 19.415 113.394 25.575C109.159 24.145 104.044 23.265 98.4894 23.265C88.2044 23.265 78.9644 25.905 78.9644 34.32C78.9644 41.635 84.6294 44.55 93.7044 44.55C101.349 44.55 107.674 42.79 113.394 39.985V44H122.854V27.665C122.744 15.4 115.044 11.055 101.514 11.055ZM113.394 33.935C108.554 36.025 101.514 37.62 96.3994 37.62C91.5044 37.62 88.3694 37.345 88.3694 33.935C88.3694 30.635 92.6044 29.425 99.6444 29.425C105.639 29.425 110.094 30.36 113.394 31.405V33.935ZM155.319 11.055C147.454 11.055 141.074 13.64 136.454 17.27V11.605H127.049V44H136.454V25.85C139.369 22.44 146.189 19.195 152.514 19.195C160.269 19.195 162.579 22.77 162.579 29.645V44H172.039L172.149 26.07C172.039 14.135 163.954 11.055 155.319 11.055ZM207.202 19.47V11.605H191.857V2.2L182.397 4.895V11.605H173.872V19.47H182.397V34.265C182.397 41.415 187.787 44.55 196.147 44.55C200.492 44.55 204.067 44.275 207.202 43.725V36.135C203.407 36.685 201.757 36.685 198.787 36.685C193.067 36.685 191.857 35.09 191.857 28.82V19.47H207.202ZM269.291 19.47V11.605H253.946V2.2L244.486 4.895V11.605H235.961V19.47H244.486V34.265C244.486 41.415 249.876 44.55 258.236 44.55C262.581 44.55 266.156 44.275 269.291 43.725V36.135C265.496 36.685 263.846 36.685 260.876 36.685C255.156 36.685 253.946 35.09 253.946 28.82V19.47H269.291ZM294.066 44.55C307.431 44.55 316.506 39.71 316.506 27.83C316.506 15.895 307.431 11.055 294.066 11.055C280.646 11.055 271.626 15.895 271.626 27.83C271.626 39.71 280.646 44.55 294.066 44.55ZM294.066 36.685C285.321 36.685 281.031 34.54 281.031 27.83C281.031 21.065 285.321 18.92 294.066 18.92C302.756 18.92 307.046 21.065 307.046 27.83C307.046 34.54 302.756 36.685 294.066 36.685ZM378.593 19.47V11.605H363.248V2.2L353.788 4.895V11.605H345.263V19.47H353.788V34.265C353.788 41.415 359.178 44.55 367.538 44.55C371.883 44.55 375.458 44.275 378.593 43.725V36.135C374.798 36.685 373.148 36.685 370.178 36.685C364.458 36.685 363.248 35.09 363.248 28.82V19.47H378.593ZM408.459 11.055C402.409 11.055 396.689 12.76 391.849 17.105V11.605H382.444V44H391.849V24.585C397.569 20.13 403.619 18.92 408.899 18.92C411.649 18.92 414.124 19.25 417.204 20.02V12.155C415.004 11.605 412.309 11.055 408.459 11.055ZM456.183 11.605L443.533 38.335L429.673 11.605H419.223L435.998 44H440.838L434.293 57.75H444.688L466.578 11.605H456.183ZM519.532 44.55C536.417 44.55 543.732 37.455 543.732 24.695C543.732 11.99 536.417 4.95 519.532 4.95C502.592 4.95 495.332 11.935 495.332 24.695C495.332 37.51 502.592 44.55 519.532 44.55ZM519.532 36.245C509.247 36.245 505.232 32.615 505.232 24.695C505.232 16.83 509.192 13.255 519.532 13.255C529.872 13.255 533.832 16.885 533.832 24.695C533.832 32.56 529.817 36.245 519.532 36.245ZM583.245 11.605V29.755C580.33 33.165 573.51 36.41 567.185 36.41C559.43 36.41 557.12 32.835 557.12 25.96V11.605H547.66L547.55 29.535C547.66 41.47 555.745 44.55 564.38 44.55C572.245 44.55 578.625 41.965 583.245 38.335V44H592.65V11.605H583.245ZM623.088 11.055C617.038 11.055 611.318 12.76 606.478 17.105V11.605H597.073V44H606.478V24.585C612.198 20.13 618.248 18.92 623.528 18.92C626.278 18.92 628.753 19.25 631.833 20.02V12.155C629.633 11.605 626.938 11.055 623.088 11.055ZM660.6 30.745C660.6 41.855 670.005 44.55 685.79 44.55C700.035 44.55 709.77 42.46 709.77 32.175C709.77 22.44 700.365 21.615 685.185 20.79C673.965 20.13 671.655 19.58 671.655 16.61C671.655 13.75 673.965 12.815 683.7 12.815C693.985 12.815 698.22 13.86 698.22 18.095H708.12C708.12 8.58 699.32 4.95 684.8 4.95C670.39 4.95 661.755 7.645 661.755 16.115C661.755 24.75 668.41 27.39 685.185 28.16C697.67 28.765 699.87 29.315 699.87 32.505C699.87 35.53 696.735 36.685 686.34 36.685C673.8 36.685 670.5 34.815 670.5 30.745H660.6ZM734.697 36.905C728.427 36.905 723.477 35.2 722.432 30.03H757.412C757.412 15.29 747.567 11.055 735.247 11.055C722.102 11.055 712.807 15.895 712.807 27.83C712.807 39.71 722.377 44.55 734.697 44.55C746.687 44.55 754.717 40.645 756.862 32.395H747.512C745.147 35.695 741.187 36.905 734.697 36.905ZM735.192 18.205C741.132 18.205 745.752 19.47 747.347 24.035H722.762C724.247 19.47 728.757 18.205 735.192 18.205ZM787.014 11.055C780.964 11.055 775.244 12.76 770.404 17.105V11.605H760.999V44H770.404V24.585C776.124 20.13 782.174 18.92 787.454 18.92C790.204 18.92 792.679 19.25 795.759 20.02V12.155C793.559 11.605 790.864 11.055 787.014 11.055ZM833.583 11.605L820.933 37.345L808.228 11.605H797.778L814.168 44H827.588L844.033 11.605H833.583ZM846.399 -6.55651e-07V8.195H855.804V-6.55651e-07H846.399ZM846.399 11.605V44H855.804V11.605H846.399ZM859.384 27.83C859.384 39.71 868.404 44.55 881.824 44.55C893.924 44.55 902.449 40.59 903.989 31.075H894.364C893.099 35.255 888.644 36.685 881.824 36.685C873.739 36.685 868.789 34.54 868.789 27.83C868.789 21.065 873.739 18.92 881.824 18.92C888.644 18.92 893.099 20.35 894.364 24.53H903.989C902.449 15.015 893.924 11.055 881.824 11.055C868.404 11.055 859.384 15.895 859.384 27.83ZM928.594 36.905C922.324 36.905 917.374 35.2 916.329 30.03H951.309C951.309 15.29 941.464 11.055 929.144 11.055C915.999 11.055 906.704 15.895 906.704 27.83C906.704 39.71 916.274 44.55 928.594 44.55C940.584 44.55 948.614 40.645 950.759 32.395H941.409C939.044 35.695 935.084 36.905 928.594 36.905ZM929.089 18.205C935.029 18.205 939.649 19.47 941.244 24.035H916.659C918.144 19.47 922.654 18.205 929.089 18.205ZM977.398 32.065C978.333 24.805 996.043 27.94 996.043 16.17C996.043 7.81 988.288 4.95 975.858 4.95C963.593 4.95 954.573 7.81 954.573 20.02H964.473C964.473 14.52 968.378 13.255 976.408 13.255C983.503 13.255 986.143 14.685 986.143 17.27C986.143 24.31 967.993 19.415 967.993 32.065H977.398ZM967.993 36.63V44H977.398V36.63H967.993Z" fill="#0B1D5E"/>
</svg>
