<svg width="487" height="62" viewBox="0 0 487 62" fill="none" xmlns="http://www.w3.org/2000/svg">
<path d="M74.4 6.4L62.452 38.358L49.692 6.4H36.874L24.172 38.3L12.166 6.4H0.914L16.922 47H31.306L43.312 16.434L55.26 47H69.702L85.71 6.4H74.4ZM118.702 12.258C110.408 12.258 103.68 14.984 98.8085 18.812V0.599999H88.8905V47H98.8085V27.86C101.882 24.264 109.074 20.842 115.744 20.842C123.922 20.842 126.358 24.612 126.358 31.862V47H136.334L136.45 28.092C136.334 15.506 127.808 12.258 118.702 12.258ZM174.751 12.838L161.411 41.026L146.795 12.838H135.775L153.465 47H158.569L151.667 61.5H162.629L185.713 12.838H174.751ZM227.055 38.242V6.4H216.615V47H258.375V38.242H227.055ZM298.662 12.838V31.978C295.588 35.574 288.396 38.996 281.726 38.996C273.548 38.996 271.112 35.226 271.112 27.976V12.838H261.136L261.02 31.746C261.136 44.332 269.662 47.58 278.768 47.58C287.062 47.58 293.79 44.854 298.662 41.026V47H308.58V12.838H298.662ZM312.961 0.599999V9.242H322.879V0.599999H312.961ZM312.961 12.838V47H322.879V12.838H312.961ZM364.064 0.599999V18.174C360.352 14.288 354.378 12.258 347.012 12.258C336.05 12.258 326.654 16.898 326.654 29.948C326.654 42.998 336.05 47.58 347.012 47.58C354.378 47.58 360.352 45.55 364.064 41.664V47H373.982V0.599999H364.064ZM350.318 39.286C341.444 39.286 336.63 36.676 336.63 29.948C336.63 23.162 341.444 20.552 350.318 20.552C359.192 20.552 364.064 23.162 364.064 29.948C364.064 36.676 359.192 39.286 350.318 39.286ZM378.607 0.599999V47H388.525V0.599999H378.607ZM430.314 12.838L416.974 41.026L402.358 12.838H391.338L409.028 47H414.132L407.23 61.5H418.192L441.276 12.838H430.314ZM467.248 34.414C468.234 26.758 486.91 30.064 486.91 17.652C486.91 8.836 478.732 5.82 465.624 5.82C452.69 5.82 443.178 8.836 443.178 21.712H453.618C453.618 15.912 457.736 14.578 466.204 14.578C473.686 14.578 476.47 16.086 476.47 18.812C476.47 26.236 457.33 21.074 457.33 34.414H467.248ZM457.33 39.228V47H467.248V39.228H457.33Z" fill="#0B1D5E"/>
</svg>
