<svg width="475" height="52" viewBox="0 0 475 52" fill="none" xmlns="http://www.w3.org/2000/svg">
<path d="M0.850456 19V0.22857H4.1676V19H0.850456ZM15.6894 6.14286H19.0066V19H15.6894V17.56C14.8837 18.76 13.6066 19.36 11.858 19.36C10.4523 19.36 9.28655 18.8886 8.36084 17.9457C7.45226 17.0029 6.99798 15.7 6.99798 14.0371V6.14286H10.3151V13.6257C10.3151 14.4829 10.5466 15.1429 11.0094 15.6057C11.4723 16.0514 12.0894 16.2743 12.8608 16.2743C13.718 16.2743 14.4037 16.0086 14.918 15.4771C15.4323 14.9457 15.6894 14.1486 15.6894 13.0857V6.14286ZM23.6904 4.6C23.1418 4.6 22.6618 4.40286 22.2504 4.00857C21.8561 3.59714 21.6589 3.11714 21.6589 2.56857C21.6589 2.02 21.8561 1.54 22.2504 1.12857C22.6618 0.717141 23.1418 0.511427 23.6904 0.511427C24.2561 0.511427 24.7361 0.717141 25.1304 1.12857C25.5418 1.54 25.7475 2.02 25.7475 2.56857C25.7475 3.11714 25.5418 3.59714 25.1304 4.00857C24.7361 4.40286 24.2561 4.6 23.6904 4.6ZM22.0447 19V6.14286H25.3618V19H22.0447ZM38.1436 0.999998H41.4607V19H38.1436V17.4829C37.1665 18.7343 35.7779 19.36 33.9779 19.36C32.2465 19.36 30.7636 18.7086 29.5293 17.4057C28.3122 16.0857 27.7036 14.4743 27.7036 12.5714C27.7036 10.6686 28.3122 9.06571 29.5293 7.76286C30.7636 6.44286 32.2465 5.78286 33.9779 5.78286C35.7779 5.78286 37.1665 6.40857 38.1436 7.66V0.999998ZM32.0236 15.1943C32.7093 15.8629 33.5665 16.1971 34.595 16.1971C35.6236 16.1971 36.4722 15.8629 37.1407 15.1943C37.8093 14.5086 38.1436 13.6343 38.1436 12.5714C38.1436 11.5086 37.8093 10.6429 37.1407 9.97429C36.4722 9.28857 35.6236 8.94571 34.595 8.94571C33.5665 8.94571 32.7093 9.28857 32.0236 9.97429C31.355 10.6429 31.0207 11.5086 31.0207 12.5714C31.0207 13.6343 31.355 14.5086 32.0236 15.1943ZM44.4944 19V0.22857H47.8116V19H44.4944ZM59.2305 6.14286H62.7791L58.0991 19C57.4305 20.8514 56.5391 22.1886 55.4248 23.0114C54.3277 23.8514 52.9562 24.2286 51.3105 24.1429V21.0571C52.202 21.0743 52.9048 20.8857 53.4191 20.4914C53.9505 20.0971 54.3705 19.4629 54.6791 18.5886L49.4077 6.14286H53.0334L56.3762 14.7829L59.2305 6.14286ZM78.2691 5.78286C80.0006 5.78286 81.4749 6.44286 82.692 7.76286C83.9263 9.06571 84.5434 10.6686 84.5434 12.5714C84.5434 14.4743 83.9263 16.0857 82.692 17.4057C81.4749 18.7086 80.0006 19.36 78.2691 19.36C76.4691 19.36 75.0806 18.7343 74.1034 17.4829V24.1429H70.7863V6.14286H74.1034V7.66C75.0806 6.40857 76.4691 5.78286 78.2691 5.78286ZM75.1063 15.1943C75.7749 15.8629 76.6234 16.1971 77.652 16.1971C78.6806 16.1971 79.5291 15.8629 80.1977 15.1943C80.8834 14.5086 81.2263 13.6343 81.2263 12.5714C81.2263 11.5086 80.8834 10.6429 80.1977 9.97429C79.5291 9.28857 78.6806 8.94571 77.652 8.94571C76.6234 8.94571 75.7749 9.28857 75.1063 9.97429C74.4377 10.6429 74.1034 11.5086 74.1034 12.5714C74.1034 13.6343 74.4377 14.5086 75.1063 15.1943ZM90.2 8.35428C90.5085 7.53143 91.0143 6.91428 91.7171 6.50286C92.4371 6.09143 93.2343 5.88571 94.1085 5.88571V9.58857C93.0971 9.46857 92.1885 9.67428 91.3828 10.2057C90.5943 10.7371 90.2 11.62 90.2 12.8543V19H86.8828V6.14286H90.2V8.35428ZM106.526 17.4057C105.206 18.7086 103.594 19.36 101.691 19.36C99.7886 19.36 98.1772 18.7086 96.8572 17.4057C95.5543 16.0857 94.9029 14.4743 94.9029 12.5714C94.9029 10.6686 95.5543 9.06571 96.8572 7.76286C98.1772 6.44286 99.7886 5.78286 101.691 5.78286C103.594 5.78286 105.206 6.44286 106.526 7.76286C107.846 9.06571 108.506 10.6686 108.506 12.5714C108.506 14.4743 107.846 16.0857 106.526 17.4057ZM99.1972 15.1171C99.8657 15.7857 100.697 16.12 101.691 16.12C102.686 16.12 103.517 15.7857 104.186 15.1171C104.854 14.4486 105.189 13.6 105.189 12.5714C105.189 11.5429 104.854 10.6943 104.186 10.0257C103.517 9.35714 102.686 9.02286 101.691 9.02286C100.697 9.02286 99.8657 9.35714 99.1972 10.0257C98.5457 10.6943 98.22 11.5429 98.22 12.5714C98.22 13.6 98.5457 14.4486 99.1972 15.1171ZM118.797 6.14286H122.448L117.563 19H113.783L108.897 6.14286H112.548L115.66 15.1429L118.797 6.14286ZM125.694 4.6C125.145 4.6 124.665 4.40286 124.254 4.00857C123.859 3.59714 123.662 3.11714 123.662 2.56857C123.662 2.02 123.859 1.54 124.254 1.12857C124.665 0.717141 125.145 0.511427 125.694 0.511427C126.259 0.511427 126.739 0.717141 127.134 1.12857C127.545 1.54 127.751 2.02 127.751 2.56857C127.751 3.11714 127.545 3.59714 127.134 4.00857C126.739 4.40286 126.259 4.6 125.694 4.6ZM124.048 19V6.14286H127.365V19H124.048ZM140.147 0.999998H143.464V19H140.147V17.4829C139.17 18.7343 137.781 19.36 135.981 19.36C134.25 19.36 132.767 18.7086 131.533 17.4057C130.316 16.0857 129.707 14.4743 129.707 12.5714C129.707 10.6686 130.316 9.06571 131.533 7.76286C132.767 6.44286 134.25 5.78286 135.981 5.78286C137.781 5.78286 139.17 6.40857 140.147 7.66V0.999998ZM134.027 15.1943C134.713 15.8629 135.57 16.1971 136.598 16.1971C137.627 16.1971 138.476 15.8629 139.144 15.1943C139.813 14.5086 140.147 13.6343 140.147 12.5714C140.147 11.5086 139.813 10.6429 139.144 9.97429C138.476 9.28857 137.627 8.94571 136.598 8.94571C135.57 8.94571 134.713 9.28857 134.027 9.97429C133.358 10.6429 133.024 11.5086 133.024 12.5714C133.024 13.6343 133.358 14.5086 134.027 15.1943ZM149.301 13.9343C149.746 15.5457 150.955 16.3514 152.926 16.3514C154.195 16.3514 155.155 15.9229 155.806 15.0657L158.481 16.6086C157.212 18.4429 155.343 19.36 152.875 19.36C150.749 19.36 149.043 18.7171 147.758 17.4314C146.472 16.1457 145.829 14.5257 145.829 12.5714C145.829 10.6343 146.463 9.02286 147.732 7.73714C149.001 6.43429 150.629 5.78286 152.618 5.78286C154.503 5.78286 156.055 6.43429 157.272 7.73714C158.506 9.04 159.123 10.6514 159.123 12.5714C159.123 13 159.081 13.4543 158.995 13.9343H149.301ZM149.249 11.3629H155.806C155.618 10.4886 155.223 9.83714 154.623 9.40857C154.041 8.98 153.372 8.76571 152.618 8.76571C151.726 8.76571 150.989 8.99714 150.406 9.46C149.823 9.90571 149.438 10.54 149.249 11.3629ZM163.997 9.79429C163.997 10.1371 164.22 10.42 164.666 10.6429C165.128 10.8486 165.686 11.0371 166.337 11.2086C166.988 11.3629 167.64 11.5686 168.291 11.8257C168.943 12.0657 169.491 12.4771 169.937 13.06C170.4 13.6429 170.631 14.3714 170.631 15.2457C170.631 16.5657 170.134 17.5857 169.14 18.3057C168.163 19.0086 166.937 19.36 165.463 19.36C162.823 19.36 161.023 18.34 160.063 16.3L162.943 14.68C163.32 15.7943 164.16 16.3514 165.463 16.3514C166.646 16.3514 167.237 15.9829 167.237 15.2457C167.237 14.9029 167.006 14.6286 166.543 14.4229C166.097 14.2 165.548 14.0029 164.897 13.8314C164.246 13.66 163.594 13.4457 162.943 13.1886C162.291 12.9314 161.734 12.5286 161.271 11.98C160.826 11.4143 160.603 10.7114 160.603 9.87143C160.603 8.60286 161.066 7.60857 161.991 6.88857C162.934 6.15143 164.1 5.78286 165.488 5.78286C166.534 5.78286 167.486 6.02286 168.343 6.50286C169.2 6.96571 169.877 7.63428 170.374 8.50857L167.546 10.0514C167.134 9.17714 166.448 8.74 165.488 8.74C165.06 8.74 164.7 8.83428 164.408 9.02286C164.134 9.21143 163.997 9.46857 163.997 9.79429ZM186.802 5.78286C188.533 5.78286 190.007 6.44286 191.224 7.76286C192.459 9.06571 193.076 10.6686 193.076 12.5714C193.076 14.4743 192.459 16.0857 191.224 17.4057C190.007 18.7086 188.533 19.36 186.802 19.36C185.002 19.36 183.613 18.7343 182.636 17.4829V24.1429H179.319V6.14286H182.636V7.66C183.613 6.40857 185.002 5.78286 186.802 5.78286ZM183.639 15.1943C184.307 15.8629 185.156 16.1971 186.184 16.1971C187.213 16.1971 188.062 15.8629 188.73 15.1943C189.416 14.5086 189.759 13.6343 189.759 12.5714C189.759 11.5086 189.416 10.6429 188.73 9.97429C188.062 9.28857 187.213 8.94571 186.184 8.94571C185.156 8.94571 184.307 9.28857 183.639 9.97429C182.97 10.6429 182.636 11.5086 182.636 12.5714C182.636 13.6343 182.97 14.5086 183.639 15.1943ZM205.187 6.14286H208.504V19H205.187V17.4829C204.192 18.7343 202.795 19.36 200.995 19.36C199.281 19.36 197.807 18.7086 196.572 17.4057C195.355 16.0857 194.747 14.4743 194.747 12.5714C194.747 10.6686 195.355 9.06571 196.572 7.76286C197.807 6.44286 199.281 5.78286 200.995 5.78286C202.795 5.78286 204.192 6.40857 205.187 7.66V6.14286ZM199.067 15.1943C199.735 15.8629 200.584 16.1971 201.612 16.1971C202.641 16.1971 203.489 15.8629 204.158 15.1943C204.844 14.5086 205.187 13.6343 205.187 12.5714C205.187 11.5086 204.844 10.6429 204.158 9.97429C203.489 9.28857 202.641 8.94571 201.612 8.94571C200.584 8.94571 199.735 9.28857 199.067 9.97429C198.398 10.6429 198.064 11.5086 198.064 12.5714C198.064 13.6343 198.398 14.5086 199.067 15.1943ZM219.895 6.14286H223.443L218.763 19C218.095 20.8514 217.203 22.1886 216.089 23.0114C214.992 23.8514 213.62 24.2286 211.975 24.1429V21.0571C212.866 21.0743 213.569 20.8857 214.083 20.4914C214.615 20.0971 215.035 19.4629 215.343 18.5886L210.072 6.14286H213.697L217.04 14.7829L219.895 6.14286ZM239.242 5.78286C240.716 5.78286 241.89 6.26286 242.765 7.22286C243.656 8.18286 244.102 9.46857 244.102 11.08V19H240.785V11.3114C240.785 10.54 240.596 9.94 240.219 9.51143C239.842 9.08286 239.31 8.86857 238.625 8.86857C237.87 8.86857 237.279 9.11714 236.85 9.61429C236.439 10.1114 236.233 10.8314 236.233 11.7743V19H232.916V11.3114C232.916 10.54 232.727 9.94 232.35 9.51143C231.973 9.08286 231.442 8.86857 230.756 8.86857C230.019 8.86857 229.427 9.11714 228.982 9.61429C228.553 10.1114 228.339 10.8314 228.339 11.7743V19H225.022V6.14286H228.339V7.50571C229.11 6.35714 230.302 5.78286 231.913 5.78286C233.49 5.78286 234.656 6.4 235.41 7.63428C236.267 6.4 237.545 5.78286 239.242 5.78286ZM249.722 13.9343C250.168 15.5457 251.376 16.3514 253.348 16.3514C254.616 16.3514 255.576 15.9229 256.228 15.0657L258.902 16.6086C257.633 18.4429 255.765 19.36 253.296 19.36C251.171 19.36 249.465 18.7171 248.179 17.4314C246.893 16.1457 246.251 14.5257 246.251 12.5714C246.251 10.6343 246.885 9.02286 248.153 7.73714C249.422 6.43429 251.051 5.78286 253.039 5.78286C254.925 5.78286 256.476 6.43429 257.693 7.73714C258.928 9.04 259.545 10.6514 259.545 12.5714C259.545 13 259.502 13.4543 259.416 13.9343H249.722ZM249.671 11.3629H256.228C256.039 10.4886 255.645 9.83714 255.045 9.40857C254.462 8.98 253.793 8.76571 253.039 8.76571C252.148 8.76571 251.411 8.99714 250.828 9.46C250.245 9.90571 249.859 10.54 249.671 11.3629ZM269.009 5.78286C270.415 5.78286 271.572 6.25429 272.48 7.19714C273.406 8.14 273.869 9.44286 273.869 11.1057V19H270.552V11.5171C270.552 10.66 270.32 10.0086 269.858 9.56286C269.395 9.1 268.778 8.86857 268.006 8.86857C267.149 8.86857 266.463 9.13428 265.949 9.66571C265.435 10.1971 265.178 10.9943 265.178 12.0571V19H261.86V6.14286H265.178V7.58286C265.983 6.38286 267.26 5.78286 269.009 5.78286ZM284.056 9.33143H281.15V14.68C281.15 15.1257 281.261 15.4514 281.484 15.6571C281.707 15.8629 282.033 15.9829 282.461 16.0171C282.89 16.0343 283.421 16.0257 284.056 15.9914V19C281.776 19.2571 280.164 19.0429 279.221 18.3571C278.296 17.6714 277.833 16.4457 277.833 14.68V9.33143H275.596V6.14286H277.833V3.54571L281.15 2.54286V6.14286H284.056V9.33143ZM296.084 9.79429C296.084 10.1371 296.307 10.42 296.753 10.6429C297.215 10.8486 297.773 11.0371 298.424 11.2086C299.075 11.3629 299.727 11.5686 300.378 11.8257C301.03 12.0657 301.578 12.4771 302.024 13.06C302.487 13.6429 302.718 14.3714 302.718 15.2457C302.718 16.5657 302.221 17.5857 301.227 18.3057C300.25 19.0086 299.024 19.36 297.55 19.36C294.91 19.36 293.11 18.34 292.15 16.3L295.03 14.68C295.407 15.7943 296.247 16.3514 297.55 16.3514C298.733 16.3514 299.324 15.9829 299.324 15.2457C299.324 14.9029 299.093 14.6286 298.63 14.4229C298.184 14.2 297.635 14.0029 296.984 13.8314C296.333 13.66 295.681 13.4457 295.03 13.1886C294.378 12.9314 293.821 12.5286 293.358 11.98C292.913 11.4143 292.69 10.7114 292.69 9.87143C292.69 8.60286 293.153 7.60857 294.078 6.88857C295.021 6.15143 296.187 5.78286 297.575 5.78286C298.621 5.78286 299.573 6.02286 300.43 6.50286C301.287 6.96571 301.964 7.63428 302.461 8.50857L299.633 10.0514C299.221 9.17714 298.535 8.74 297.575 8.74C297.147 8.74 296.787 8.83428 296.495 9.02286C296.221 9.21143 296.084 9.46857 296.084 9.79429ZM307.479 13.9343C307.924 15.5457 309.133 16.3514 311.104 16.3514C312.373 16.3514 313.333 15.9229 313.984 15.0657L316.659 16.6086C315.39 18.4429 313.522 19.36 311.053 19.36C308.927 19.36 307.222 18.7171 305.936 17.4314C304.65 16.1457 304.007 14.5257 304.007 12.5714C304.007 10.6343 304.642 9.02286 305.91 7.73714C307.179 6.43429 308.807 5.78286 310.796 5.78286C312.682 5.78286 314.233 6.43429 315.45 7.73714C316.684 9.04 317.302 10.6514 317.302 12.5714C317.302 13 317.259 13.4543 317.173 13.9343H307.479ZM307.427 11.3629H313.984C313.796 10.4886 313.402 9.83714 312.802 9.40857C312.219 8.98 311.55 8.76571 310.796 8.76571C309.904 8.76571 309.167 8.99714 308.584 9.46C308.002 9.90571 307.616 10.54 307.427 11.3629ZM325.637 19.36C323.7 19.36 322.08 18.7086 320.777 17.4057C319.491 16.1029 318.848 14.4914 318.848 12.5714C318.848 10.6514 319.491 9.04 320.777 7.73714C322.08 6.43429 323.7 5.78286 325.637 5.78286C326.888 5.78286 328.028 6.08286 329.057 6.68286C330.085 7.28286 330.865 8.08857 331.397 9.1L328.542 10.7714C328.285 10.24 327.891 9.82 327.36 9.51143C326.845 9.20286 326.262 9.04857 325.611 9.04857C324.617 9.04857 323.794 9.38286 323.142 10.0514C322.491 10.7029 322.165 11.5429 322.165 12.5714C322.165 13.5829 322.491 14.4229 323.142 15.0914C323.794 15.7429 324.617 16.0686 325.611 16.0686C326.28 16.0686 326.871 15.9229 327.385 15.6314C327.917 15.3229 328.311 14.9029 328.568 14.3714L331.448 16.0171C330.882 17.0286 330.085 17.8429 329.057 18.46C328.028 19.06 326.888 19.36 325.637 19.36ZM341.789 6.14286H345.106V19H341.789V17.56C340.983 18.76 339.706 19.36 337.957 19.36C336.552 19.36 335.386 18.8886 334.46 17.9457C333.552 17.0029 333.097 15.7 333.097 14.0371V6.14286H336.414V13.6257C336.414 14.4829 336.646 15.1429 337.109 15.6057C337.572 16.0514 338.189 16.2743 338.96 16.2743C339.817 16.2743 340.503 16.0086 341.017 15.4771C341.532 14.9457 341.789 14.1486 341.789 13.0857V6.14286ZM351.461 8.35428C351.77 7.53143 352.275 6.91428 352.978 6.50286C353.698 6.09143 354.495 5.88571 355.37 5.88571V9.58857C354.358 9.46857 353.45 9.67428 352.644 10.2057C351.855 10.7371 351.461 11.62 351.461 12.8543V19H348.144V6.14286H351.461V8.35428ZM358.955 4.6C358.407 4.6 357.927 4.40286 357.515 4.00857C357.121 3.59714 356.924 3.11714 356.924 2.56857C356.924 2.02 357.121 1.54 357.515 1.12857C357.927 0.717141 358.407 0.511427 358.955 0.511427C359.521 0.511427 360.001 0.717141 360.395 1.12857C360.807 1.54 361.013 2.02 361.013 2.56857C361.013 3.11714 360.807 3.59714 360.395 4.00857C360.001 4.40286 359.521 4.6 358.955 4.6ZM357.31 19V6.14286H360.627V19H357.31ZM371.017 9.33143H368.112V14.68C368.112 15.1257 368.223 15.4514 368.446 15.6571C368.669 15.8629 368.994 15.9829 369.423 16.0171C369.852 16.0343 370.383 16.0257 371.017 15.9914V19C368.737 19.2571 367.126 19.0429 366.183 18.3571C365.257 17.6714 364.794 16.4457 364.794 14.68V9.33143H362.557V6.14286H364.794V3.54571L368.112 2.54286V6.14286H371.017V9.33143ZM382.015 6.14286H385.564L380.884 19C380.215 20.8514 379.324 22.1886 378.209 23.0114C377.112 23.8514 375.741 24.2286 374.095 24.1429V21.0571C374.987 21.0743 375.689 20.8857 376.204 20.4914C376.735 20.0971 377.155 19.4629 377.464 18.5886L372.192 6.14286H375.818L379.161 14.7829L382.015 6.14286ZM400.488 3.82857C398.671 3.69143 397.762 4.42 397.762 6.01429V6.14286H400.488V9.33143H397.762V19H394.445V9.33143H392.594V6.14286H394.445V6.01429C394.445 4.19714 394.951 2.81714 395.962 1.87428C396.974 0.931427 398.482 0.519999 400.488 0.639998V3.82857ZM412.486 17.4057C411.166 18.7086 409.554 19.36 407.651 19.36C405.748 19.36 404.137 18.7086 402.817 17.4057C401.514 16.0857 400.863 14.4743 400.863 12.5714C400.863 10.6686 401.514 9.06571 402.817 7.76286C404.137 6.44286 405.748 5.78286 407.651 5.78286C409.554 5.78286 411.166 6.44286 412.486 7.76286C413.806 9.06571 414.466 10.6686 414.466 12.5714C414.466 14.4743 413.806 16.0857 412.486 17.4057ZM405.157 15.1171C405.826 15.7857 406.657 16.12 407.651 16.12C408.646 16.12 409.477 15.7857 410.146 15.1171C410.814 14.4486 411.148 13.6 411.148 12.5714C411.148 11.5429 410.814 10.6943 410.146 10.0257C409.477 9.35714 408.646 9.02286 407.651 9.02286C406.657 9.02286 405.826 9.35714 405.157 10.0257C404.506 10.6943 404.18 11.5429 404.18 12.5714C404.18 13.6 404.506 14.4486 405.157 15.1171ZM420.116 8.35428C420.425 7.53143 420.931 6.91428 421.633 6.50286C422.353 6.09143 423.151 5.88571 424.025 5.88571V9.58857C423.013 9.46857 422.105 9.67428 421.299 10.2057C420.511 10.7371 420.116 11.62 420.116 12.8543V19H416.799V6.14286H420.116V8.35428ZM8.33331 37.7829C10.0647 37.7829 11.539 38.4429 12.7562 39.7629C13.9905 41.0657 14.6076 42.6686 14.6076 44.5714C14.6076 46.4743 13.9905 48.0857 12.7562 49.4057C11.539 50.7086 10.0647 51.36 8.33331 51.36C6.53331 51.36 5.14474 50.7343 4.1676 49.4829V51H0.850456V33H4.1676V39.66C5.14474 38.4086 6.53331 37.7829 8.33331 37.7829ZM5.17046 47.1943C5.83903 47.8629 6.6876 48.1971 7.71617 48.1971C8.74474 48.1971 9.59331 47.8629 10.2619 47.1943C10.9476 46.5086 11.2905 45.6343 11.2905 44.5714C11.2905 43.5086 10.9476 42.6429 10.2619 41.9743C9.59331 41.2886 8.74474 40.9457 7.71617 40.9457C6.6876 40.9457 5.83903 41.2886 5.17046 41.9743C4.50188 42.6429 4.1676 43.5086 4.1676 44.5714C4.1676 45.6343 4.50188 46.5086 5.17046 47.1943ZM25.4327 38.1429H28.7499V51H25.4327V49.56C24.627 50.76 23.3499 51.36 21.6013 51.36C20.1956 51.36 19.0299 50.8886 18.1041 49.9457C17.1956 49.0029 16.7413 47.7 16.7413 46.0371V38.1429H20.0584V45.6257C20.0584 46.4829 20.2899 47.1429 20.7527 47.6057C21.2156 48.0514 21.8327 48.2743 22.6041 48.2743C23.4613 48.2743 24.147 48.0086 24.6613 47.4771C25.1756 46.9457 25.4327 46.1486 25.4327 45.0857V38.1429ZM34.7475 41.7943C34.7475 42.1371 34.9704 42.42 35.4161 42.6429C35.8789 42.8486 36.4361 43.0371 37.0875 43.2086C37.7389 43.3629 38.3904 43.5686 39.0418 43.8257C39.6932 44.0657 40.2418 44.4771 40.6875 45.06C41.1504 45.6429 41.3818 46.3714 41.3818 47.2457C41.3818 48.5657 40.8847 49.5857 39.8904 50.3057C38.9132 51.0086 37.6875 51.36 36.2132 51.36C33.5732 51.36 31.7732 50.34 30.8132 48.3L33.6932 46.68C34.0704 47.7943 34.9104 48.3514 36.2132 48.3514C37.3961 48.3514 37.9875 47.9829 37.9875 47.2457C37.9875 46.9029 37.7561 46.6286 37.2932 46.4229C36.8475 46.2 36.2989 46.0029 35.6475 45.8314C34.9961 45.66 34.3447 45.4457 33.6932 45.1886C33.0418 44.9314 32.4847 44.5286 32.0218 43.98C31.5761 43.4143 31.3532 42.7114 31.3532 41.8714C31.3532 40.6029 31.8161 39.6086 32.7418 38.8886C33.6847 38.1514 34.8504 37.7829 36.2389 37.7829C37.2847 37.7829 38.2361 38.0229 39.0932 38.5029C39.9504 38.9657 40.6275 39.6343 41.1247 40.5086L38.2961 42.0514C37.8847 41.1771 37.1989 40.74 36.2389 40.74C35.8104 40.74 35.4504 40.8343 35.1589 41.0229C34.8847 41.2114 34.7475 41.4686 34.7475 41.7943ZM45.1608 36.6C44.6122 36.6 44.1322 36.4029 43.7208 36.0086C43.3265 35.5971 43.1294 35.1171 43.1294 34.5686C43.1294 34.02 43.3265 33.54 43.7208 33.1286C44.1322 32.7171 44.6122 32.5114 45.1608 32.5114C45.7265 32.5114 46.2065 32.7171 46.6008 33.1286C47.0122 33.54 47.2179 34.02 47.2179 34.5686C47.2179 35.1171 47.0122 35.5971 46.6008 36.0086C46.2065 36.4029 45.7265 36.6 45.1608 36.6ZM43.5151 51V38.1429H46.8322V51H43.5151ZM57.0169 37.7829C58.4226 37.7829 59.5797 38.2543 60.4883 39.1971C61.414 40.14 61.8769 41.4429 61.8769 43.1057V51H58.5597V43.5171C58.5597 42.66 58.3283 42.0086 57.8655 41.5629C57.4026 41.1 56.7855 40.8686 56.014 40.8686C55.1569 40.8686 54.4712 41.1343 53.9569 41.6657C53.4426 42.1971 53.1855 42.9943 53.1855 44.0571V51H49.8683V38.1429H53.1855V39.5829C53.9912 38.3829 55.2683 37.7829 57.0169 37.7829ZM67.5121 45.9343C67.9578 47.5457 69.1664 48.3514 71.1378 48.3514C72.4064 48.3514 73.3664 47.9229 74.0178 47.0657L76.6921 48.6086C75.4236 50.4429 73.555 51.36 71.0864 51.36C68.9607 51.36 67.255 50.7171 65.9693 49.4314C64.6836 48.1457 64.0407 46.5257 64.0407 44.5714C64.0407 42.6343 64.675 41.0229 65.9436 39.7371C67.2121 38.4343 68.8407 37.7829 70.8293 37.7829C72.715 37.7829 74.2664 38.4343 75.4836 39.7371C76.7178 41.04 77.335 42.6514 77.335 44.5714C77.335 45 77.2921 45.4543 77.2064 45.9343H67.5121ZM67.4607 43.3629H74.0178C73.8293 42.4886 73.435 41.8371 72.835 41.4086C72.2521 40.98 71.5836 40.7657 70.8293 40.7657C69.9378 40.7657 69.2007 40.9971 68.6178 41.46C68.035 41.9057 67.6493 42.54 67.4607 43.3629ZM82.2085 41.7943C82.2085 42.1371 82.4313 42.42 82.877 42.6429C83.3399 42.8486 83.897 43.0371 84.5485 43.2086C85.1999 43.3629 85.8513 43.5686 86.5027 43.8257C87.1542 44.0657 87.7027 44.4771 88.1485 45.06C88.6113 45.6429 88.8427 46.3714 88.8427 47.2457C88.8427 48.5657 88.3456 49.5857 87.3513 50.3057C86.3742 51.0086 85.1485 51.36 83.6742 51.36C81.0342 51.36 79.2342 50.34 78.2742 48.3L81.1542 46.68C81.5313 47.7943 82.3713 48.3514 83.6742 48.3514C84.857 48.3514 85.4485 47.9829 85.4485 47.2457C85.4485 46.9029 85.217 46.6286 84.7542 46.4229C84.3085 46.2 83.7599 46.0029 83.1085 45.8314C82.457 45.66 81.8056 45.4457 81.1542 45.1886C80.5027 44.9314 79.9456 44.5286 79.4827 43.98C79.037 43.4143 78.8142 42.7114 78.8142 41.8714C78.8142 40.6029 79.277 39.6086 80.2027 38.8886C81.1456 38.1514 82.3113 37.7829 83.6999 37.7829C84.7456 37.7829 85.697 38.0229 86.5542 38.5029C87.4113 38.9657 88.0885 39.6343 88.5856 40.5086L85.757 42.0514C85.3456 41.1771 84.6599 40.74 83.6999 40.74C83.2713 40.74 82.9113 40.8343 82.6199 41.0229C82.3456 41.2114 82.2085 41.4686 82.2085 41.7943ZM93.358 41.7943C93.358 42.1371 93.5809 42.42 94.0266 42.6429C94.4894 42.8486 95.0466 43.0371 95.698 43.2086C96.3494 43.3629 97.0009 43.5686 97.6523 43.8257C98.3037 44.0657 98.8523 44.4771 99.298 45.06C99.7609 45.6429 99.9923 46.3714 99.9923 47.2457C99.9923 48.5657 99.4951 49.5857 98.5009 50.3057C97.5237 51.0086 96.298 51.36 94.8237 51.36C92.1837 51.36 90.3837 50.34 89.4237 48.3L92.3037 46.68C92.6809 47.7943 93.5209 48.3514 94.8237 48.3514C96.0066 48.3514 96.598 47.9829 96.598 47.2457C96.598 46.9029 96.3666 46.6286 95.9037 46.4229C95.458 46.2 94.9094 46.0029 94.258 45.8314C93.6066 45.66 92.9551 45.4457 92.3037 45.1886C91.6523 44.9314 91.0951 44.5286 90.6323 43.98C90.1866 43.4143 89.9637 42.7114 89.9637 41.8714C89.9637 40.6029 90.4266 39.6086 91.3523 38.8886C92.2951 38.1514 93.4609 37.7829 94.8494 37.7829C95.8951 37.7829 96.8466 38.0229 97.7037 38.5029C98.5609 38.9657 99.238 39.6343 99.7351 40.5086L96.9066 42.0514C96.4951 41.1771 95.8094 40.74 94.8494 40.74C94.4209 40.74 94.0609 40.8343 93.7694 41.0229C93.4951 41.2114 93.358 41.4686 93.358 41.7943ZM104.753 45.9343C105.198 47.5457 106.407 48.3514 108.378 48.3514C109.647 48.3514 110.607 47.9229 111.258 47.0657L113.933 48.6086C112.664 50.4429 110.796 51.36 108.327 51.36C106.201 51.36 104.496 50.7171 103.21 49.4314C101.924 48.1457 101.281 46.5257 101.281 44.5714C101.281 42.6343 101.916 41.0229 103.184 39.7371C104.453 38.4343 106.081 37.7829 108.07 37.7829C109.956 37.7829 111.507 38.4343 112.724 39.7371C113.958 41.04 114.576 42.6514 114.576 44.5714C114.576 45 114.533 45.4543 114.447 45.9343H104.753ZM104.701 43.3629H111.258C111.07 42.4886 110.676 41.8371 110.076 41.4086C109.493 40.98 108.824 40.7657 108.07 40.7657C107.178 40.7657 106.441 40.9971 105.858 41.46C105.276 41.9057 104.89 42.54 104.701 43.3629ZM119.449 41.7943C119.449 42.1371 119.672 42.42 120.118 42.6429C120.58 42.8486 121.138 43.0371 121.789 43.2086C122.44 43.3629 123.092 43.5686 123.743 43.8257C124.395 44.0657 124.943 44.4771 125.389 45.06C125.852 45.6429 126.083 46.3714 126.083 47.2457C126.083 48.5657 125.586 49.5857 124.592 50.3057C123.615 51.0086 122.389 51.36 120.915 51.36C118.275 51.36 116.475 50.34 115.515 48.3L118.395 46.68C118.772 47.7943 119.612 48.3514 120.915 48.3514C122.098 48.3514 122.689 47.9829 122.689 47.2457C122.689 46.9029 122.458 46.6286 121.995 46.4229C121.549 46.2 121 46.0029 120.349 45.8314C119.698 45.66 119.046 45.4457 118.395 45.1886C117.743 44.9314 117.186 44.5286 116.723 43.98C116.278 43.4143 116.055 42.7114 116.055 41.8714C116.055 40.6029 116.518 39.6086 117.443 38.8886C118.386 38.1514 119.552 37.7829 120.94 37.7829C121.986 37.7829 122.938 38.0229 123.795 38.5029C124.652 38.9657 125.329 39.6343 125.826 40.5086L122.998 42.0514C122.586 41.1771 121.9 40.74 120.94 40.74C120.512 40.74 120.152 40.8343 119.86 41.0229C119.586 41.2114 119.449 41.4686 119.449 41.7943ZM144.542 38.1429H147.859V51H144.542V49.4829C143.548 50.7343 142.151 51.36 140.351 51.36C138.636 51.36 137.162 50.7086 135.928 49.4057C134.711 48.0857 134.102 46.4743 134.102 44.5714C134.102 42.6686 134.711 41.0657 135.928 39.7629C137.162 38.4429 138.636 37.7829 140.351 37.7829C142.151 37.7829 143.548 38.4086 144.542 39.66V38.1429ZM138.422 47.1943C139.091 47.8629 139.939 48.1971 140.968 48.1971C141.996 48.1971 142.845 47.8629 143.514 47.1943C144.199 46.5086 144.542 45.6343 144.542 44.5714C144.542 43.5086 144.199 42.6429 143.514 41.9743C142.845 41.2886 141.996 40.9457 140.968 40.9457C139.939 40.9457 139.091 41.2886 138.422 41.9743C137.754 42.6429 137.419 43.5086 137.419 44.5714C137.419 45.6343 137.754 46.5086 138.422 47.1943ZM158.016 37.7829C159.421 37.7829 160.579 38.2543 161.487 39.1971C162.413 40.14 162.876 41.4429 162.876 43.1057V51H159.559V43.5171C159.559 42.66 159.327 42.0086 158.864 41.5629C158.401 41.1 157.784 40.8686 157.013 40.8686C156.156 40.8686 155.47 41.1343 154.956 41.6657C154.441 42.1971 154.184 42.9943 154.184 44.0571V51H150.867V38.1429H154.184V39.5829C154.99 38.3829 156.267 37.7829 158.016 37.7829ZM175.454 33H178.771V51H175.454V49.4829C174.477 50.7343 173.088 51.36 171.288 51.36C169.557 51.36 168.074 50.7086 166.84 49.4057C165.622 48.0857 165.014 46.4743 165.014 44.5714C165.014 42.6686 165.622 41.0657 166.84 39.7629C168.074 38.4429 169.557 37.7829 171.288 37.7829C173.088 37.7829 174.477 38.4086 175.454 39.66V33ZM169.334 47.1943C170.02 47.8629 170.877 48.1971 171.905 48.1971C172.934 48.1971 173.782 47.8629 174.451 47.1943C175.12 46.5086 175.454 45.6343 175.454 44.5714C175.454 43.5086 175.12 42.6429 174.451 41.9743C173.782 41.2886 172.934 40.9457 171.905 40.9457C170.877 40.9457 170.02 41.2886 169.334 41.9743C168.665 42.6429 168.331 43.5086 168.331 44.5714C168.331 45.6343 168.665 46.5086 169.334 47.1943ZM189.879 36.6C189.33 36.6 188.85 36.4029 188.439 36.0086C188.045 35.5971 187.848 35.1171 187.848 34.5686C187.848 34.02 188.045 33.54 188.439 33.1286C188.85 32.7171 189.33 32.5114 189.879 32.5114C190.445 32.5114 190.925 32.7171 191.319 33.1286C191.73 33.54 191.936 34.02 191.936 34.5686C191.936 35.1171 191.73 35.5971 191.319 36.0086C190.925 36.4029 190.445 36.6 189.879 36.6ZM188.233 51V38.1429H191.55V51H188.233ZM201.735 37.7829C203.141 37.7829 204.298 38.2543 205.207 39.1971C206.132 40.14 206.595 41.4429 206.595 43.1057V51H203.278V43.5171C203.278 42.66 203.047 42.0086 202.584 41.5629C202.121 41.1 201.504 40.8686 200.732 40.8686C199.875 40.8686 199.189 41.1343 198.675 41.6657C198.161 42.1971 197.904 42.9943 197.904 44.0571V51H194.587V38.1429H197.904V39.5829C198.709 38.3829 199.987 37.7829 201.735 37.7829ZM219.173 33H222.49V51H219.173V49.4829C218.196 50.7343 216.807 51.36 215.007 51.36C213.276 51.36 211.793 50.7086 210.559 49.4057C209.342 48.0857 208.733 46.4743 208.733 44.5714C208.733 42.6686 209.342 41.0657 210.559 39.7629C211.793 38.4429 213.276 37.7829 215.007 37.7829C216.807 37.7829 218.196 38.4086 219.173 39.66V33ZM213.053 47.1943C213.739 47.8629 214.596 48.1971 215.625 48.1971C216.653 48.1971 217.502 47.8629 218.17 47.1943C218.839 46.5086 219.173 45.6343 219.173 44.5714C219.173 43.5086 218.839 42.6429 218.17 41.9743C217.502 41.2886 216.653 40.9457 215.625 40.9457C214.596 40.9457 213.739 41.2886 213.053 41.9743C212.385 42.6429 212.05 43.5086 212.05 44.5714C212.05 45.6343 212.385 46.5086 213.053 47.1943ZM227.17 36.6C226.621 36.6 226.141 36.4029 225.73 36.0086C225.335 35.5971 225.138 35.1171 225.138 34.5686C225.138 34.02 225.335 33.54 225.73 33.1286C226.141 32.7171 226.621 32.5114 227.17 32.5114C227.735 32.5114 228.215 32.7171 228.61 33.1286C229.021 33.54 229.227 34.02 229.227 34.5686C229.227 35.1171 229.021 35.5971 228.61 36.0086C228.215 36.4029 227.735 36.6 227.17 36.6ZM225.524 51V38.1429H228.841V51H225.524ZM240.337 38.1429H243.989L239.103 51H235.323L230.437 38.1429H234.089L237.2 47.1429L240.337 38.1429ZM247.234 36.6C246.685 36.6 246.205 36.4029 245.794 36.0086C245.4 35.5971 245.202 35.1171 245.202 34.5686C245.202 34.02 245.4 33.54 245.794 33.1286C246.205 32.7171 246.685 32.5114 247.234 32.5114C247.8 32.5114 248.28 32.7171 248.674 33.1286C249.085 33.54 249.291 34.02 249.291 34.5686C249.291 35.1171 249.085 35.5971 248.674 36.0086C248.28 36.4029 247.8 36.6 247.234 36.6ZM245.588 51V38.1429H248.905V51H245.588ZM261.687 33H265.004V51H261.687V49.4829C260.71 50.7343 259.321 51.36 257.521 51.36C255.79 51.36 254.307 50.7086 253.073 49.4057C251.856 48.0857 251.247 46.4743 251.247 44.5714C251.247 42.6686 251.856 41.0657 253.073 39.7629C254.307 38.4429 255.79 37.7829 257.521 37.7829C259.321 37.7829 260.71 38.4086 261.687 39.66V33ZM255.567 47.1943C256.253 47.8629 257.11 48.1971 258.139 48.1971C259.167 48.1971 260.016 47.8629 260.684 47.1943C261.353 46.5086 261.687 45.6343 261.687 44.5714C261.687 43.5086 261.353 42.6429 260.684 41.9743C260.016 41.2886 259.167 40.9457 258.139 40.9457C257.11 40.9457 256.253 41.2886 255.567 41.9743C254.899 42.6429 254.564 43.5086 254.564 44.5714C254.564 45.6343 254.899 46.5086 255.567 47.1943ZM276.524 38.1429H279.841V51H276.524V49.56C275.718 50.76 274.441 51.36 272.692 51.36C271.287 51.36 270.121 50.8886 269.195 49.9457C268.287 49.0029 267.832 47.7 267.832 46.0371V38.1429H271.149V45.6257C271.149 46.4829 271.381 47.1429 271.844 47.6057C272.307 48.0514 272.924 48.2743 273.695 48.2743C274.552 48.2743 275.238 48.0086 275.752 47.4771C276.267 46.9457 276.524 46.1486 276.524 45.0857V38.1429ZM292.65 38.1429H295.968V51H292.65V49.4829C291.656 50.7343 290.259 51.36 288.459 51.36C286.745 51.36 285.27 50.7086 284.036 49.4057C282.819 48.0857 282.21 46.4743 282.21 44.5714C282.21 42.6686 282.819 41.0657 284.036 39.7629C285.27 38.4429 286.745 37.7829 288.459 37.7829C290.259 37.7829 291.656 38.4086 292.65 39.66V38.1429ZM286.53 47.1943C287.199 47.8629 288.048 48.1971 289.076 48.1971C290.105 48.1971 290.953 47.8629 291.622 47.1943C292.308 46.5086 292.65 45.6343 292.65 44.5714C292.65 43.5086 292.308 42.6429 291.622 41.9743C290.953 41.2886 290.105 40.9457 289.076 40.9457C288.048 40.9457 287.199 41.2886 286.53 41.9743C285.862 42.6429 285.528 43.5086 285.528 44.5714C285.528 45.6343 285.862 46.5086 286.53 47.1943ZM298.975 51V32.2286H302.293V51H298.975ZM308.288 41.7943C308.288 42.1371 308.511 42.42 308.957 42.6429C309.42 42.8486 309.977 43.0371 310.628 43.2086C311.28 43.3629 311.931 43.5686 312.583 43.8257C313.234 44.0657 313.783 44.4771 314.228 45.06C314.691 45.6429 314.923 46.3714 314.923 47.2457C314.923 48.5657 314.425 49.5857 313.431 50.3057C312.454 51.0086 311.228 51.36 309.754 51.36C307.114 51.36 305.314 50.34 304.354 48.3L307.234 46.68C307.611 47.7943 308.451 48.3514 309.754 48.3514C310.937 48.3514 311.528 47.9829 311.528 47.2457C311.528 46.9029 311.297 46.6286 310.834 46.4229C310.388 46.2 309.84 46.0029 309.188 45.8314C308.537 45.66 307.885 45.4457 307.234 45.1886C306.583 44.9314 306.025 44.5286 305.563 43.98C305.117 43.4143 304.894 42.7114 304.894 41.8714C304.894 40.6029 305.357 39.6086 306.283 38.8886C307.225 38.1514 308.391 37.7829 309.78 37.7829C310.825 37.7829 311.777 38.0229 312.634 38.5029C313.491 38.9657 314.168 39.6343 314.665 40.5086L311.837 42.0514C311.425 41.1771 310.74 40.74 309.78 40.74C309.351 40.74 308.991 40.8343 308.7 41.0229C308.425 41.2114 308.288 41.4686 308.288 41.7943ZM333.381 38.1429H336.699V51H333.381V49.4829C332.387 50.7343 330.99 51.36 329.19 51.36C327.476 51.36 326.001 50.7086 324.767 49.4057C323.55 48.0857 322.941 46.4743 322.941 44.5714C322.941 42.6686 323.55 41.0657 324.767 39.7629C326.001 38.4429 327.476 37.7829 329.19 37.7829C330.99 37.7829 332.387 38.4086 333.381 39.66V38.1429ZM327.261 47.1943C327.93 47.8629 328.779 48.1971 329.807 48.1971C330.836 48.1971 331.684 47.8629 332.353 47.1943C333.039 46.5086 333.381 45.6343 333.381 44.5714C333.381 43.5086 333.039 42.6429 332.353 41.9743C331.684 41.2886 330.836 40.9457 329.807 40.9457C328.779 40.9457 327.93 41.2886 327.261 41.9743C326.593 42.6429 326.259 43.5086 326.259 44.5714C326.259 45.6343 326.593 46.5086 327.261 47.1943ZM345.827 51.36C343.889 51.36 342.269 50.7086 340.967 49.4057C339.681 48.1029 339.038 46.4914 339.038 44.5714C339.038 42.6514 339.681 41.04 340.967 39.7371C342.269 38.4343 343.889 37.7829 345.827 37.7829C347.078 37.7829 348.218 38.0829 349.247 38.6829C350.275 39.2829 351.055 40.0886 351.587 41.1L348.732 42.7714C348.475 42.24 348.081 41.82 347.549 41.5114C347.035 41.2029 346.452 41.0486 345.801 41.0486C344.807 41.0486 343.984 41.3829 343.332 42.0514C342.681 42.7029 342.355 43.5429 342.355 44.5714C342.355 45.5829 342.681 46.4229 343.332 47.0914C343.984 47.7429 344.807 48.0686 345.801 48.0686C346.469 48.0686 347.061 47.9229 347.575 47.6314C348.107 47.3229 348.501 46.9029 348.758 46.3714L351.638 48.0171C351.072 49.0286 350.275 49.8429 349.247 50.46C348.218 51.06 347.078 51.36 345.827 51.36ZM356.81 40.3543C357.118 39.5314 357.624 38.9143 358.327 38.5029C359.047 38.0914 359.844 37.8857 360.718 37.8857V41.5886C359.707 41.4686 358.798 41.6743 357.993 42.2057C357.204 42.7371 356.81 43.62 356.81 44.8543V51H353.493V38.1429H356.81V40.3543ZM373.136 49.4057C371.816 50.7086 370.204 51.36 368.301 51.36C366.399 51.36 364.787 50.7086 363.467 49.4057C362.164 48.0857 361.513 46.4743 361.513 44.5714C361.513 42.6686 362.164 41.0657 363.467 39.7629C364.787 38.4429 366.399 37.7829 368.301 37.7829C370.204 37.7829 371.816 38.4429 373.136 39.7629C374.456 41.0657 375.116 42.6686 375.116 44.5714C375.116 46.4743 374.456 48.0857 373.136 49.4057ZM365.807 47.1171C366.476 47.7857 367.307 48.12 368.301 48.12C369.296 48.12 370.127 47.7857 370.796 47.1171C371.464 46.4486 371.799 45.6 371.799 44.5714C371.799 43.5429 371.464 42.6943 370.796 42.0257C370.127 41.3571 369.296 41.0229 368.301 41.0229C367.307 41.0229 366.476 41.3571 365.807 42.0257C365.156 42.6943 364.83 43.5429 364.83 44.5714C364.83 45.6 365.156 46.4486 365.807 47.1171ZM380.233 41.7943C380.233 42.1371 380.456 42.42 380.902 42.6429C381.364 42.8486 381.922 43.0371 382.573 43.2086C383.224 43.3629 383.876 43.5686 384.527 43.8257C385.179 44.0657 385.727 44.4771 386.173 45.06C386.636 45.6429 386.867 46.3714 386.867 47.2457C386.867 48.5657 386.37 49.5857 385.376 50.3057C384.399 51.0086 383.173 51.36 381.699 51.36C379.059 51.36 377.259 50.34 376.299 48.3L379.179 46.68C379.556 47.7943 380.396 48.3514 381.699 48.3514C382.882 48.3514 383.473 47.9829 383.473 47.2457C383.473 46.9029 383.242 46.6286 382.779 46.4229C382.333 46.2 381.784 46.0029 381.133 45.8314C380.482 45.66 379.83 45.4457 379.179 45.1886C378.527 44.9314 377.97 44.5286 377.507 43.98C377.062 43.4143 376.839 42.7114 376.839 41.8714C376.839 40.6029 377.302 39.6086 378.227 38.8886C379.17 38.1514 380.336 37.7829 381.724 37.7829C382.77 37.7829 383.722 38.0229 384.579 38.5029C385.436 38.9657 386.113 39.6343 386.61 40.5086L383.782 42.0514C383.37 41.1771 382.684 40.74 381.724 40.74C381.296 40.74 380.936 40.8343 380.644 41.0229C380.37 41.2114 380.233 41.4686 380.233 41.7943ZM391.383 41.7943C391.383 42.1371 391.605 42.42 392.051 42.6429C392.514 42.8486 393.071 43.0371 393.723 43.2086C394.374 43.3629 395.025 43.5686 395.677 43.8257C396.328 44.0657 396.877 44.4771 397.323 45.06C397.785 45.6429 398.017 46.3714 398.017 47.2457C398.017 48.5657 397.52 49.5857 396.525 50.3057C395.548 51.0086 394.323 51.36 392.848 51.36C390.208 51.36 388.408 50.34 387.448 48.3L390.328 46.68C390.705 47.7943 391.545 48.3514 392.848 48.3514C394.031 48.3514 394.623 47.9829 394.623 47.2457C394.623 46.9029 394.391 46.6286 393.928 46.4229C393.483 46.2 392.934 46.0029 392.283 45.8314C391.631 45.66 390.98 45.4457 390.328 45.1886C389.677 44.9314 389.12 44.5286 388.657 43.98C388.211 43.4143 387.988 42.7114 387.988 41.8714C387.988 40.6029 388.451 39.6086 389.377 38.8886C390.32 38.1514 391.485 37.7829 392.874 37.7829C393.92 37.7829 394.871 38.0229 395.728 38.5029C396.585 38.9657 397.263 39.6343 397.76 40.5086L394.931 42.0514C394.52 41.1771 393.834 40.74 392.874 40.74C392.445 40.74 392.085 40.8343 391.794 41.0229C391.52 41.2114 391.383 41.4686 391.383 41.7943ZM418.43 51L417.35 47.76H410.176L409.096 51H405.264L411.564 33H415.961L422.287 51H418.43ZM411.307 44.4429H416.244L413.776 37.0886L411.307 44.4429ZM430.421 35.8286C428.604 35.6914 427.695 36.42 427.695 38.0143V38.1429H430.421V41.3314H427.695V51H424.378V41.3314H422.527V38.1429H424.378V38.0143C424.378 36.1971 424.884 34.8171 425.895 33.8743C426.907 32.9314 428.415 32.52 430.421 32.64V35.8286ZM435.259 40.3543C435.567 39.5314 436.073 38.9143 436.776 38.5029C437.496 38.0914 438.293 37.8857 439.167 37.8857V41.5886C438.156 41.4686 437.247 41.6743 436.441 42.2057C435.653 42.7371 435.259 43.62 435.259 44.8543V51H431.941V38.1429H435.259V40.3543ZM442.753 36.6C442.204 36.6 441.724 36.4029 441.313 36.0086C440.919 35.5971 440.721 35.1171 440.721 34.5686C440.721 34.02 440.919 33.54 441.313 33.1286C441.724 32.7171 442.204 32.5114 442.753 32.5114C443.319 32.5114 443.799 32.7171 444.193 33.1286C444.604 33.54 444.81 34.02 444.81 34.5686C444.81 35.1171 444.604 35.5971 444.193 36.0086C443.799 36.4029 443.319 36.6 442.753 36.6ZM441.107 51V38.1429H444.424V51H441.107ZM453.58 51.36C451.643 51.36 450.023 50.7086 448.72 49.4057C447.435 48.1029 446.792 46.4914 446.792 44.5714C446.792 42.6514 447.435 41.04 448.72 39.7371C450.023 38.4343 451.643 37.7829 453.58 37.7829C454.832 37.7829 455.972 38.0829 457 38.6829C458.029 39.2829 458.809 40.0886 459.34 41.1L456.486 42.7714C456.229 42.24 455.835 41.82 455.303 41.5114C454.789 41.2029 454.206 41.0486 453.555 41.0486C452.56 41.0486 451.738 41.3829 451.086 42.0514C450.435 42.7029 450.109 43.5429 450.109 44.5714C450.109 45.5829 450.435 46.4229 451.086 47.0914C451.738 47.7429 452.56 48.0686 453.555 48.0686C454.223 48.0686 454.815 47.9229 455.329 47.6314C455.86 47.3229 456.255 46.9029 456.512 46.3714L459.392 48.0171C458.826 49.0286 458.029 49.8429 457 50.46C455.972 51.06 454.832 51.36 453.58 51.36ZM470.717 38.1429H474.034V51H470.717V49.4829C469.722 50.7343 468.325 51.36 466.525 51.36C464.811 51.36 463.337 50.7086 462.102 49.4057C460.885 48.0857 460.277 46.4743 460.277 44.5714C460.277 42.6686 460.885 41.0657 462.102 39.7629C463.337 38.4429 464.811 37.7829 466.525 37.7829C468.325 37.7829 469.722 38.4086 470.717 39.66V38.1429ZM464.597 47.1943C465.265 47.8629 466.114 48.1971 467.142 48.1971C468.171 48.1971 469.02 47.8629 469.688 47.1943C470.374 46.5086 470.717 45.6343 470.717 44.5714C470.717 43.5086 470.374 42.6429 469.688 41.9743C469.02 41.2886 468.171 40.9457 467.142 40.9457C466.114 40.9457 465.265 41.2886 464.597 41.9743C463.928 42.6429 463.594 43.5086 463.594 44.5714C463.594 45.6343 463.928 46.5086 464.597 47.1943Z" fill="black"/>
</svg>
